<svg width="134" height="134" viewBox="0 0 134 134" fill="none" xmlns="http://www.w3.org/2000/svg">
<circle cx="66.6481" cy="67.3038" r="36.18" fill="white" stroke="#00BBC9" stroke-width="4.02"/>
<path d="M40.8397 66.2567H41.6437V59.0207H40.8397V56.3836H48.2204C49.5604 56.3836 50.6056 56.6569 51.356 57.2036C52.1064 57.7504 52.4816 58.5329 52.4816 59.5513C52.4816 60.1838 52.3315 60.7198 52.0313 61.1593C51.7312 61.5881 51.3774 61.9151 50.9701 62.1402C50.5734 62.3546 50.1875 62.4993 49.8123 62.5744V62.7352C50.5734 62.8102 51.2595 63.0514 51.8705 63.4588C52.4816 63.8661 52.7871 64.5951 52.7871 65.6456C52.7871 66.7712 52.3637 67.5967 51.5168 68.122C50.6699 68.6365 49.5711 68.8938 48.2204 68.8938H40.8397V66.2567ZM47.0144 61.6578C47.3253 61.6578 47.5557 61.5774 47.7058 61.4166C47.8666 61.2451 47.947 60.9824 47.947 60.6287V60.0498C47.947 59.696 47.8666 59.4388 47.7058 59.278C47.5557 59.1064 47.3253 59.0207 47.0144 59.0207H46.1461V61.6578H47.0144ZM47.1269 66.2567C47.4378 66.2567 47.6683 66.1763 47.8184 66.0155C47.9792 65.844 48.0596 65.5813 48.0596 65.2276V64.52C48.0596 64.1663 47.9792 63.909 47.8184 63.7482C47.6683 63.5767 47.4378 63.4909 47.1269 63.4909H46.1461V66.2567H47.1269ZM59.354 69.1189C57.3923 69.1189 55.8754 68.6044 54.8034 67.5752C53.7421 66.5461 53.2115 64.9006 53.2115 62.6387C53.2115 60.3768 53.7421 58.7312 54.8034 57.7021C55.8754 56.673 57.3923 56.1584 59.354 56.1584C61.3158 56.1584 62.8273 56.673 63.8886 57.7021C64.9606 58.7312 65.4966 60.3768 65.4966 62.6387C65.4966 64.9006 64.9606 66.5461 63.8886 67.5752C62.8273 68.6044 61.3158 69.1189 59.354 69.1189ZM59.354 66.2567C59.7185 66.2567 59.9919 66.1602 60.1741 65.9672C60.3563 65.7743 60.4475 65.4741 60.4475 65.0668V60.2106C60.4475 59.8032 60.3563 59.5031 60.1741 59.3101C59.9919 59.1172 59.7185 59.0207 59.354 59.0207C58.9895 59.0207 58.7162 59.1172 58.5339 59.3101C58.3517 59.5031 58.2606 59.8032 58.2606 60.2106V65.0668C58.2606 65.4848 58.3517 65.7904 58.5339 65.9833C58.7162 66.1656 58.9895 66.2567 59.354 66.2567ZM72.0893 69.1189C70.1275 69.1189 68.6106 68.6044 67.5386 67.5752C66.4773 66.5461 65.9467 64.9006 65.9467 62.6387C65.9467 60.3768 66.4773 58.7312 67.5386 57.7021C68.6106 56.673 70.1275 56.1584 72.0893 56.1584C74.051 56.1584 75.5625 56.673 76.6238 57.7021C77.6958 58.7312 78.2318 60.3768 78.2318 62.6387C78.2318 64.9006 77.6958 66.5461 76.6238 67.5752C75.5625 68.6044 74.051 69.1189 72.0893 69.1189ZM72.0893 66.2567C72.4537 66.2567 72.7271 66.1602 72.9093 65.9672C73.0916 65.7743 73.1827 65.4741 73.1827 65.0668V60.2106C73.1827 59.8032 73.0916 59.5031 72.9093 59.3101C72.7271 59.1172 72.4537 59.0207 72.0893 59.0207C71.7248 59.0207 71.4514 59.1172 71.2692 59.3101C71.0869 59.5031 70.9958 59.8032 70.9958 60.2106V65.0668C70.9958 65.4848 71.0869 65.7904 71.2692 65.9833C71.4514 66.1656 71.7248 66.2567 72.0893 66.2567ZM78.7216 60.082L79.4131 58.4418H78.6251V56.3836H80.8763V58.4418L79.799 60.082H78.7216ZM86.8253 69.1189C85.7962 69.1189 84.8207 69.0332 83.8988 68.8616C82.9876 68.6794 82.2854 68.4757 81.7923 68.2506V65.0668H85.3299C85.3299 65.3991 85.4049 65.6403 85.555 65.7904C85.7051 65.9404 85.9784 66.0155 86.3751 66.0155C86.7074 66.0155 86.9432 65.9672 87.0826 65.8708C87.2327 65.7636 87.3077 65.6081 87.3077 65.4044C87.3077 65.2329 87.238 65.0882 87.0987 64.9703C86.9593 64.8416 86.7181 64.713 86.3751 64.5844L84.9922 64.102C83.8023 63.6517 82.9447 63.1211 82.4194 62.51C81.9048 61.899 81.6476 61.0736 81.6476 60.0337C81.6476 58.7688 82.0603 57.8093 82.8857 57.1554C83.7219 56.4908 85.1101 56.1584 87.0504 56.1584C87.9831 56.1584 88.8568 56.2549 89.6715 56.4479C90.4969 56.6301 91.1616 56.8767 91.6654 57.1876V60.0659H88.4494C88.4494 59.5299 88.1171 59.2619 87.4524 59.2619C87.1308 59.2619 86.9004 59.3048 86.761 59.3905C86.6324 59.4656 86.568 59.6049 86.568 59.8086C86.568 59.9908 86.6431 60.1356 86.7932 60.2428C86.954 60.35 87.2112 60.4625 87.565 60.5804L88.964 61.0628C90.1003 61.4488 90.9257 61.9526 91.4403 62.5744C91.9656 63.1854 92.2282 63.9894 92.2282 64.9864C92.2282 66.3478 91.7672 67.3769 90.8453 68.0737C89.9341 68.7705 88.5941 69.1189 86.8253 69.1189Z" fill="#00BBC9"/>
<path d="M29.1605 59.0126C29.1605 57.2721 28.4381 56.0911 27.9365 54.4859C27.3573 52.6325 25.9587 51.7098 24.4201 50.6976C21.2333 48.601 16.5867 49.2552 13.4241 47.3949C12.2136 46.6828 11.326 45.8709 11.326 44.5002C11.326 43.5551 10.8843 41.2889 11.9477 40.9061C13.7127 40.2707 15.9941 40.9446 17.6011 41.5472C18.9411 42.0497 19.7279 44.0426 20.7678 45.0247C22.8613 47.002 24.9792 49.5708 28.2668 49.5708C28.9082 49.5708 32.8812 49.8076 32.4631 50.4644C31.9858 51.2145 30.0221 52.718 29.1605 52.718C28.3907 52.718 27.3686 52.8943 26.6349 52.6403C25.5516 52.2654 26.0078 51.526 25.4692 50.8336C24.732 49.8857 23.1752 48.8923 22.1665 48.444C18.6139 46.865 17.2319 43.6259 13.0744 43.6259" stroke="white" stroke-width="4.02" stroke-linecap="round"/>
<path d="M30.5592 54.4665C31.4072 54.4665 31.4521 54.7346 31.6083 55.5156" stroke="white" stroke-width="4.02" stroke-linecap="round"/>
<path d="M32.3077 49.5708C33.0683 48.8947 34.0562 48.74 34.0562 47.6475C34.0562 46.5113 33.8044 45.8214 33.4345 44.7528C33.109 43.8122 32.6574 42.6826 32.6574 41.6832C32.6574 39.2085 32.6574 40.3407 32.6574 42.0523C32.6574 43.8163 31.958 49.0617 31.958 47.2978C31.958 45.8571 31.3736 41.1781 33.7065 41.1781C34.7916 41.1781 35.3933 42.2845 36.3486 42.5574C37.3471 42.8427 38.3499 42.3273 39.3016 42.2272C40.4782 42.1033 40.6531 40.3532 41.5747 40.1484C43.1035 39.8087 43.1483 38.9157 43.1483 37.5063C43.1483 35.7353 42.4513 32.7854 45.0716 32.7854C47.1028 32.7854 48.8506 33.4848 50.8416 33.4848C56.8626 33.4848 56.7864 27.0783 56.7864 22.4694C56.7864 19.6747 55.8322 17.873 54.7077 15.4366C53.9968 13.8963 52.0019 11.2251 53.5615 9.97745C55.3734 8.52792 55.9711 10.1564 56.5144 11.7259C57.3582 14.1634 57.4858 16.7307 57.4858 19.3221C57.4858 21.4748 57.0397 24.1822 57.5052 26.2772C57.6746 27.0391 58.5169 27.9126 58.8069 28.6667C59.2821 29.9024 60.3148 29.6853 60.9828 30.6872" stroke="white" stroke-width="4.02" stroke-linecap="round"/>
<path d="M45.2465 36.632C45.2465 35.3048 46.7771 34.6428 46.2956 34.8835" stroke="white" stroke-width="4.02" stroke-linecap="round"/>
<path d="M34.7556 43.9756C35.434 44.051 36.2046 44.4587 36.8538 44.675" stroke="white" stroke-width="4.02" stroke-linecap="round"/>
<path d="M60.6331 29.2884C60.9344 31.6988 67.5707 26.9555 68.0544 26.5686C68.7791 25.9888 70.8747 27.3339 71.2017 27.8897C71.756 28.832 72.4446 30.6872 73.397 30.6872C74.6307 30.6872 75.8115 30.764 76.8939 30.1627C77.497 29.8277 79.8302 28.7083 80.488 29.3661C81.1606 30.0388 81.2089 31.8297 81.2651 32.7854C81.3055 33.4717 83.4811 33.0007 82.1199 31.2506C81.2998 30.1961 80.7931 28.4844 79.2835 29.3079C77.9661 30.0265 75.8849 31.3479 78.4676 31.7169C79.2029 31.8219 81.2683 31.1382 81.6148 30.5318C81.9283 29.9832 82.6395 30.4545 81.7897 29.7936C80.9465 29.1378 80.5285 28.5779 79.4001 29.2884C78.2812 29.9929 77.4581 31.7363 76.0197 31.7363C74.5574 31.7363 74.7312 30.6872 73.1833 30.6872C72.0269 30.6872 69.2112 31.1918 68.3458 30.1821C68.1901 30.0005 67.0716 29.7168 67.8213 29.2884C68.3626 28.9791 69.0609 28.6594 69.3755 29.2884" stroke="white" stroke-width="2.68" stroke-linecap="round"/>
<path d="M82.3142 31.7363C83.5191 31.8702 83.6653 34.0991 85.1118 34.1842C86.4846 34.2649 87.7211 34.8836 89.1333 34.8836C90.7913 34.8836 91.8819 34.6367 93.4656 34.1842C94.5662 33.8697 97.3144 31.6748 97.8951 30.8038C98.8898 29.3117 100.222 28.7262 101.547 27.5399C102.901 26.3293 103.699 25.0921 105.55 25.0921C107.096 25.0921 107.541 26.7982 107.823 28.0645C108.222 29.8597 105.285 30.6077 104.073 31.3866C102.166 32.6127 100.393 33.5122 98.4002 34.4561C97.0347 35.103 95.0428 35.2085 94.1844 36.496C93.2497 37.8982 92.9101 39.7193 91.9114 41.0032C90.9824 42.1977 90.7069 38.7079 90.7069 38.0308C90.7069 36.0419 93.3272 36.4072 94.8256 35.4275C95.5271 34.9688 96.5953 34.7915 97.1763 34.3396C98.074 33.6414 98.8728 32.9078 99.935 32.4357C100.837 32.0349 102.451 29.9503 103.102 29.1136C103.829 28.1779 106.313 29.0926 105.044 27.1902" stroke="white" stroke-width="2.68" stroke-linecap="round"/>
<path d="M91.4063 35.5829C90.747 35.6489 89.6698 35.9595 89.1916 36.4378C88.9252 36.7041 90.5035 36.2823 90.7069 36.2823C91.7798 36.2823 94.2039 36.7595 94.2039 35.2332" stroke="white" stroke-width="2.68" stroke-linecap="round"/>
<path d="M99.799 30.6872C100.419 30.6872 100.8 30.7168 101.276 30.2598C101.662 29.8882 102.247 28.4414 102.247 28.9776C102.247 30.522 101.874 30.5784 100.498 31.0369" stroke="white" stroke-width="2.68" stroke-linecap="round"/>
<path d="M93.8542 40.8284C94.9673 40.8284 97.3102 41.1453 98.1282 41.7998C99.0022 42.4989 101.376 40.8284 102.422 40.8284C102.979 40.8284 106.345 39.8365 105.394 38.8856C104.605 38.0962 103.067 39.8328 102.383 40.1484C101.112 40.7352 99.9216 41.5997 98.6722 42.1495C98.1295 42.3882 97.9462 43.1448 98.5945 42.7323C99.104 42.4081 99.6055 41.9235 100.226 41.8775C101.344 41.7947 102.186 41.1207 103.141 40.8478C103.838 40.6485 104.448 41.0683 104.967 40.401C105.046 40.2996 102.953 41.2351 102.441 41.5278C101.739 41.9291 100.518 42.2716 100.149 43.1014C99.6366 44.2536 97.6743 45.665 98.9442 47.2978C99.6166 48.1623 100.066 48.3421 100.926 48.8714C101.754 49.3809 103.094 49.3687 103.646 49.9205" stroke="white" stroke-width="2.68" stroke-linecap="round"/>
<path d="M95.9524 43.6259C97.2803 43.6259 97.3511 43.6968 97.3511 45.0247" stroke="white" stroke-width="2.68" stroke-linecap="round"/>
<path d="M97.3511 41.8775C97.4809 40.839 99.7815 41.1781 100.498 41.1781" stroke="white" stroke-width="2.68" stroke-linecap="round"/>
<path d="M29.1605 59.3623C26.3176 59.6782 23.3365 64.8094 27.2371 65.6762C27.8471 65.8118 28.0962 66.2839 28.5388 66.6282C28.8637 66.8809 28.2439 65.8583 28.1308 65.4625C27.9503 64.8309 27.8342 63.8613 27.7617 63.2089C27.6589 62.2839 26.3728 63.6402 26.0132 63.8306C23.6048 65.1056 29.1605 67.889 29.1605 68.6486C29.1605 72.6392 23.5653 74.0142 23.5653 77.7213C23.5653 79.4929 22.6725 80.5481 24.0704 82.0731C25.3159 83.4317 27.1261 83.841 28.8885 83.841C30.1528 83.841 30.2955 83.4876 31.0644 84.6958C31.3665 85.1706 32.3522 86.4888 31.3752 86.6191C29.852 86.8222 29.1451 86.4755 28.0337 85.6672C27.3032 85.1359 26.1707 85.6782 25.3915 84.8124C24.1937 83.4815 23.1656 77.7241 25.139 76.8471C25.7381 76.5808 26.4857 76.198 27.14 76.1477C28.3164 76.0572 28.8238 75.1368 27.4897 76.4197C26.1279 77.7291 26.3629 79.0731 26.3629 80.8491C26.3629 81.5201 26.2547 82.2043 26.6349 82.7919C27.2981 83.8169 28.8108 82.4121 28.8108 81.568C28.8108 80.2275 28.8108 76.206 28.8108 77.5465C28.8108 78.6706 28.4611 79.7206 28.4611 80.8491C28.4611 81.8601 29.0884 81.9937 29.7821 82.7142C31.2119 84.1989 31.6664 86.0862 32.4826 87.8819C32.9269 88.8595 30.9089 92.366 30.9089 89.9607C30.9089 89.2884 31.055 88.5623 30.5592 88.0373C29.5064 86.9225 29.698 88.4846 30.2095 89.0864C30.8414 89.8298 30.9089 90.4315 30.9089 91.3594C30.9089 92.7413 30.5144 92.7109 29.685 93.6325C29.1302 94.2489 28.1005 94.3648 27.684 95.0312C27.3162 95.6197 26.5261 96.2668 26.0132 96.7797C25.0045 97.7885 24.0903 98.7487 23.2156 99.7327C21.6897 101.449 21.4671 102.426 21.4671 104.803C21.4671 106.698 21.5574 108.582 23.8373 108.669C25.0944 108.718 26.8878 108.994 27.7617 107.465C28.5059 106.162 29.2932 104.934 30.0347 103.599C30.6888 102.421 31.8823 100.241 31.958 98.8779C32.048 97.2588 33.4748 96.1646 34.0562 94.8564C34.7634 93.2652 38.0881 94.3319 39.3016 94.3319" stroke="white" stroke-width="2.68" stroke-linecap="round"/>
<path d="M23.2156 78.2458C23.2156 79.1048 23.0007 80.3081 23.2933 81.1211C23.4303 81.5016 24.8259 83.5699 25.1195 83.8216C25.9793 84.5585 26.6837 85.7005 27.7617 86.2111C28.6168 86.6162 29.5699 86.684 29.8404 87.9013C30.0466 88.829 29.8598 90.0153 29.8598 90.9709C29.8598 92.0397 30.5379 88.5211 29.7821 87.7653C29.5648 87.548 29.5102 90.0007 29.5102 90.3104C29.5102 91.6231 29.2816 92.1057 28.8108 93.2828" stroke="white" stroke-width="2.68" stroke-linecap="round"/>
<path d="M32.6574 80.6937C31.5791 80.6937 30.9546 82.0536 30.3844 82.0536C30.0688 82.0536 30.2095 80.2134 30.2095 79.9749C30.2095 79.1503 30.4716 77.7668 30.1318 77.0025C29.9908 76.6851 29.041 75.4618 28.8108 75.4483C27.7722 75.3872 28.083 75.746 28.4611 75.2734C28.8102 74.837 30.1764 73.7266 28.6359 74.0689C26.4911 74.5455 24.216 78.8948 28.4611 77.1967" stroke="white" stroke-width="2.68" stroke-linecap="round"/>
<path d="M34.0562 62.8592C32.3408 62.8592 30.8144 62.1598 29.1605 62.1598C27.3747 62.1598 28.2219 63.7796 28.8108 64.9574" stroke="white" stroke-width="2.68" stroke-linecap="round"/>
<path d="M33.7065 85.5895C33.7065 86.8716 33.1813 89.5406 33.7842 90.6795C34.3065 91.666 37.178 89.7558 36.1544 92.0588C35.5046 93.5209 32.1435 93.7967 30.9089 95.0313C30.4243 95.5159 29.9818 95.9584 29.5102 96.43C28.8752 97.065 29.5356 98.1284 28.6359 98.5282C28.1373 98.7498 27.6024 99.6572 27.2566 100.102C26.7492 100.754 25.9494 100.8 25.3138 101.345C23.9825 102.486 23.915 103.092 23.915 104.823C23.915 106.63 27.4059 106.104 25.1584 106.921C24.9361 107.002 24.0515 107.625 23.915 107.795C23.4477 108.379 25.875 107.582 26.2075 107.426C27.071 107.02 27.7611 107.004 28.4611 106.222C28.7468 105.902 29.5174 104.256 28.8108 104.123C26.998 103.783 30.6906 99.8392 31.0838 99.2276C32.4157 97.1558 28.3032 100.465 27.8394 101.753C27.3238 103.185 26.5997 104.177 25.6635 105.347C24.7335 106.51 24.4068 102.734 24.8087 102.045C25.7095 100.5 26.87 98.7205 28.1114 97.4791C28.9009 96.6896 29.7899 96.0402 30.5592 95.2255C31.4327 94.3007 31.9682 92.9617 32.8517 92.0783C33.5404 91.3895 36.0449 93.7125 36.8538 93.9822" stroke="white" stroke-width="2.68" stroke-linecap="round"/>
<path d="M41.0501 94.6816C39.4334 94.6816 39.3015 92.8553 37.9029 92.156C36.9119 91.6605 36.0875 91.3414 35.1247 90.6795C34.6132 90.3278 33.6513 88.8471 33.3568 89.4361" stroke="white" stroke-width="2.68" stroke-linecap="round"/>
<path d="M33.3568 95.7306C32.9291 96.6396 32.1107 97.3384 31.2586 97.9065C30.5702 98.3655 30.453 99.5464 30.2095 100.277" stroke="white" stroke-width="2.68" stroke-linecap="round"/>
<path d="M29.1605 102.375C30.2452 102.375 31.0076 102.022 31.5306 100.976C31.6804 100.676 31.6083 100.251 31.6083 99.927C31.6083 99.2488 32.067 99.2389 32.2689 98.6836C32.7613 97.3293 33.3009 95.381 35.1053 95.381C37.824 95.381 39.6806 95.9549 42.2352 96.7409C44.2576 97.3632 45.8317 97.4791 48.044 97.4791" stroke="white" stroke-width="2.68" stroke-linecap="round"/>
<path d="M39.6513 96.0804C39.7543 97.7282 42.4489 97.5958 42.4489 99.0528C42.4489 99.4285 42.9436 100.143 43.3426 100.257C43.8843 100.412 45.5962 100.277 45.0328 100.277C44.5444 100.277 41.5569 102.233 41.3998 100.976C41.2877 100.079 38.6418 97.7625 39.3793 99.4219C40.0428 100.915 41.986 100.976 43.3037 100.976C44.1461 100.976 47.0521 100.023 47.5001 100.471C48.6568 101.628 49.1754 104.204 51.269 104.123C52.9386 104.059 51.1356 103.753 50.9193 103.152C50.5587 102.15 50.792 102.117 51.269 102.647C52.4885 104.002 54.0833 103.48 55.2322 104.628C55.9981 105.394 55.7878 105.893 56.2619 106.746C56.7936 107.703 57.2305 108.269 57.9715 109.175C58.8789 110.284 60.5741 110.418 62.0319 110.418C63.3993 110.418 64.3502 110.161 65.4511 109.369C66.4547 108.646 65.6366 108.161 67.1996 107.698C67.8161 107.515 68.5619 107.62 69.2006 107.62C69.9424 107.62 69.7999 106.263 70.3857 105.736C70.5865 105.555 68.2885 107.353 67.8213 107.62C66.6873 108.268 65.8021 109.025 64.5186 109.524C63.6332 109.869 60.771 110.068 61.721 110.068C63.7439 110.068 64.4849 107.716 66.4031 107.29C67.1663 107.12 67.9129 106.652 68.6761 106.571C69.8883 106.444 69.7162 105.62 70.5023 106.494C71.078 107.133 72.305 107.137 72.7947 107.97C73.3168 108.858 73.7691 109.463 74.1935 110.418C74.9217 112.056 74.3294 113.798 74.6403 115.508C75.0066 117.522 75.3139 119.473 76.0197 121.414C76.992 124.088 78.5219 124.755 81.1874 124.755C82.8383 124.755 84.2278 123.84 85.0341 122.308C86.5847 119.361 84.8273 115.657 83.0136 113.39C81.8108 111.887 79.8267 111.359 78.4676 110.068C77.3807 109.036 76.6448 107.899 75.942 106.571C75.3405 105.435 74.9706 103.164 74.9706 105.697C74.9706 107.743 74.9706 109.79 74.9706 111.836C74.9706 114.681 75.3929 118.032 76.7968 120.559C77.4977 121.821 77.4185 118.807 77.4185 118.461C77.4185 116.921 77.5455 115.333 77.1465 113.837C77.0388 113.433 77.0688 111.534 77.0688 112.943C77.0688 114.459 77.0688 115.974 77.0688 117.49C77.0688 118.052 77.0502 118.691 77.3408 119.199C77.7433 119.904 77.5478 117.589 77.6905 116.79C78.0218 114.935 78.5073 118.261 78.5453 118.616C78.7025 120.088 78.9837 121.541 79.167 123.007" stroke="white" stroke-width="2.68" stroke-linecap="round"/>
<path d="M80.216 123.007C82.2378 122.108 81.7852 118.106 80.7406 116.829C80.2316 116.207 79.6774 114.201 79.4972 113.39C79.3591 112.769 78.0332 111.071 77.5933 110.632C76.9818 110.02 77.7683 112.146 78.1179 112.516C78.7937 113.232 79.4806 113.918 80.216 114.614C81.6417 115.965 82.6639 118.184 82.6639 120.209C82.6639 122.827 83.0136 121.323 83.0136 119.51C83.0136 118.312 83.0136 117.114 83.0136 115.916C83.0136 114.98 82.6944 117.78 82.3142 118.636C82.0411 119.25 81.6844 119.978 81.3428 120.559C80.6243 121.781 79.6747 119.256 79.4389 118.811C78.824 117.649 77.1957 116.811 76.5248 115.469C76.1015 114.622 75.9659 113.511 75.3203 112.866" stroke="white" stroke-width="2.68" stroke-linecap="round"/>
<path d="M73.2221 106.222C73.1745 105.841 65.4884 106.222 64.3049 106.222C62.6541 106.222 63.003 106.948 61.9542 107.892C61.4003 108.391 60.0027 107.969 59.584 107.445C59.1373 106.887 55.6281 103.774 57.4858 103.774C58.4 103.774 60.8139 106.39 61.3325 105.872" stroke="white" stroke-width="2.68" stroke-linecap="round"/>
<path d="M46.9949 97.8288C46.0078 97.9522 44.7728 98.1581 43.8477 98.5282" stroke="white" stroke-width="2.68" stroke-linecap="round"/>
<path d="M22.8659 105.872C22.8659 106.509 22.9988 106.43 23.5653 106.571" stroke="white" stroke-width="2.68" stroke-linecap="round"/>
<path d="M81.9645 114.265C83.1212 114.393 82.8957 115.82 82.3919 114.964C81.5768 113.578 81.9645 117.107 81.9645 117.781C81.9645 118.931 81.6831 120.579 82.3142 121.589C82.7941 122.357 82.9414 123.381 81.9645 123.706" stroke="white" stroke-width="2.68" stroke-linecap="round"/>
<path d="M37.2035 95.7306C36.6583 95.7988 38.5719 97.1788 38.8742 97.5568C40.0894 99.0758 39.3399 100.024 41.7495 100.626" stroke="white" stroke-width="2.68" stroke-linecap="round"/>
<path d="M37.2035 96.43C38.0952 97.2227 38.7294 97.5709 39.2239 98.6836C39.8297 100.047 40.2646 99.7164 39.3016 99.1499C37.9322 98.3444 38.3793 97.6076 37.8251 96.43C37.8094 96.3965 37.1678 98.5623 38.7965 98.8585C40.3444 99.1399 41.4109 99.977 39.8067 98.3728C39.395 97.9611 38.9519 98.1876 38.9519 98.7031C38.9519 99.3121 39.512 99.2126 39.6319 99.7522C40.0562 101.662 43.3477 102.009 44.8968 100.976" stroke="white" stroke-width="2.68" stroke-linecap="round"/>
<path d="M70.0813 107.649C70.6226 107.649 71.2599 107.217 71.6243 107.8C71.7358 107.979 72.1617 108.034 72.3539 108.178C72.6243 108.38 72.7607 108.706 73.1003 108.706" stroke="white" stroke-width="2.68" stroke-linecap="round"/>
<path d="M75.6665 105.083C75.7558 104.28 76.4271 102.97 77.327 102.97C77.856 102.97 76.844 103.168 76.6477 103.364C76.3705 103.641 76.2703 104.467 76.2703 104.857C76.2703 105.273 76.2703 105.69 76.2703 106.106C76.2703 107.066 76.2605 105.325 76.2703 105.05C76.3052 104.073 77.4386 103.155 78.3081 102.961C79.2361 102.755 79.676 101.993 80.6479 102.819C80.9218 103.052 81.2693 103.121 81.6207 103.121C81.9315 103.121 82.0535 103.37 82.3168 103.414C82.7088 103.48 82.9995 103.574 83.4405 103.574C84.5723 103.574 84.7224 102.707 85.1429 101.913C85.3449 101.532 85.6293 98.6408 85.6293 100.32C85.6293 101.157 84.8346 101.913 83.9688 101.913C83.3957 101.913 83.365 101.89 83.365 101.309C83.365 100.708 83.3344 100.585 83.7424 100.177C84.5293 99.3903 85.0472 98.9163 86.3002 99.2296C87.4003 99.5046 88.5096 99.6389 89.4786 100.177C90.5558 100.776 91.6313 100.857 92.875 100.857C94.0034 100.857 93.9317 99.5238 93.9317 98.6593C93.9317 97.5628 94.0866 96.3304 93.8143 95.2713C93.4302 93.7775 92.4966 96.3891 92.1957 96.6299C91.8448 96.9106 89.8134 97.3253 90.6946 98.2065C90.935 98.4469 91.4887 98.5922 91.8183 98.5922C92.4714 98.5922 92.4146 97.5225 92.5396 97.1163C92.673 96.6825 92.5664 96.3363 92.875 95.9506C93.0807 95.6935 93.4205 95.3449 93.4872 95.0449C93.5748 94.6506 94.0665 94.5191 94.3845 94.332C94.8088 94.0825 94.9894 93.5817 95.4412 93.3425C96.401 92.8343 96.8789 92.4032 98.0828 92.4032C99.3878 92.4032 100.746 92.2523 102.083 92.2523C103.265 92.2523 104.524 93.3198 105.681 93.7534C106.816 94.179 107.465 95.5179 108.239 96.3615C108.649 96.8088 108.709 97.5213 108.951 98.0555C109.234 98.6781 108.522 98.7432 108.046 98.7432C107.609 98.7432 107.024 98.2615 106.612 98.0555C106.046 97.7725 105.971 97.0206 105.639 96.5125C105.112 95.707 104.375 94.8716 103.97 93.9798C103.434 92.8013 102.968 91.7318 102.083 90.7427C101.366 89.9408 100.959 89.015 100.196 88.252C99.8225 87.8784 99.7594 87.4024 99.6343 86.9018C99.396 85.9486 99.2449 86.2535 99.215 87.0025C99.1822 87.8225 98.3627 89.3968 99.2905 90.1389C99.4177 90.2407 98.1668 90.2899 97.9403 90.2899C97.3588 90.2899 96.7774 90.2899 96.1959 90.2899" stroke="white" stroke-width="2.68" stroke-linecap="round"/>
<path d="M100.574 92.7051C101.262 92.0931 102.859 94.1734 103.106 94.6675C103.273 95.0004 103.575 95.7668 103.894 95.9925C104.215 96.2186 104.742 96.6181 104.951 96.9318" stroke="white" stroke-width="2.68" stroke-linecap="round"/>
<path d="M98.3093 90.8936C98.3804 90.3247 100.356 91.4426 100.574 91.6484C100.927 91.9827 101.47 92.159 101.857 92.4786C102.135 92.7087 102.916 93.9497 102.611 93.6108C102.052 92.9893 101.171 92.526 100.356 92.1767C99.6803 91.8874 99.0934 91.9503 98.3428 91.9503C98.1284 91.9503 98.9183 92.0927 99.064 92.1013C99.4605 92.1246 99.9479 91.9831 100.272 92.2606C100.773 92.6907 101.265 93.0868 101.815 93.4598C102.284 93.7782 102.618 94.1875 103.064 94.5165C103.483 94.825 104.361 95.6523 104.557 96.1099C104.873 96.8462 105.401 97.5886 106.243 97.829C106.962 98.0347 107.828 98.0777 108.272 98.7431" stroke="white" stroke-width="2.68" stroke-linecap="round"/>
<path d="M100.724 87.8746C100.724 87.5539 100.578 85.6279 100.875 85.6103C102.059 85.5407 103.621 85.3803 104.725 85.7697C105.879 86.1772 107.038 87.2562 108.239 87.4218C108.52 87.4605 111.593 89.1209 111.593 88.5455C111.593 88.097 111.728 87.4892 111.325 87.187C110.826 86.8127 110.239 86.6253 109.673 86.3735C108.564 85.8809 107.301 86.1387 106.243 85.6774C105.797 85.4832 105.258 85.56 104.834 85.3084C104.621 85.1823 104.412 84.9971 104.196 84.8891C103.636 84.6091 103.284 84.1381 102.762 83.7905C102.498 83.6146 102.418 83.3312 102.377 83.0442C102.335 82.7543 102.023 82.6592 101.932 82.3649C101.678 81.5386 101.479 81.7935 101.479 82.5242C101.479 83.0281 101.442 83.4781 101.63 83.9499" stroke="white" stroke-width="2.68" stroke-linecap="round"/>
<path d="M101.781 80.7799C102.68 80.7799 103.682 80.6635 104.616 80.6289C105.361 80.6014 106.008 79.4824 106.008 78.8175C106.008 76.8847 103.47 75.916 103.131 74.0541C103.031 73.501 102.852 73.0771 103.215 72.553C103.563 72.0506 103.836 72.1288 104.272 71.7899C104.721 71.4406 106.159 71.0914 106.159 70.4397C106.159 69.8377 106.289 69.1099 105.781 68.7037C105.032 68.1043 103.936 67.949 102.989 67.949" stroke="white" stroke-width="2.68" stroke-linecap="round"/>
<path d="M103.744 77.308V79.5723" stroke="white" stroke-width="2.68" stroke-linecap="round"/>
<path d="M104.498 67.798C104.498 67.3452 104.498 66.8923 104.498 66.4394C104.498 65.8317 104.631 65.7754 104.943 65.3073C105.191 64.9351 105.613 64.5017 106.008 64.2926C106.493 64.0358 106.989 64.0076 107.45 63.7978C108.519 63.3122 109.574 62.8166 110.771 62.8166C111.353 62.8166 111.933 62.5283 112.532 62.5147C113.297 62.4973 114.065 62.5147 114.83 62.5147C115.986 62.5147 116.951 62.4968 118.05 62.8501C118.618 63.0325 119.07 63.0623 119.602 63.3617C120.167 63.6797 120.74 64.1322 121.288 64.4771C121.933 64.8834 123.702 65.0225 124.424 64.6616C124.652 64.5477 125.352 64.1617 125.472 63.9404C125.62 63.6688 125.689 63.3497 125.85 63.085C126.099 62.6747 125.956 62.3163 126.118 61.9109C126.406 61.191 126.425 59.8359 125.858 59.2692C125.4 58.8113 124.988 58.8203 124.458 58.5061C124.009 58.2402 123.148 58.3752 122.772 58.0616C122.609 57.9261 121.772 57.846 121.556 57.8352C120.908 57.8028 120.303 57.8969 119.669 57.9945C119.019 58.0945 118.596 58.5521 117.933 58.5899C117.406 58.6201 116.633 59.062 116.122 59.2608C114.774 59.785 113.519 60.1345 112.13 60.4349C111.477 60.576 110.799 60.7279 110.151 60.8458C109.559 60.9535 108.887 60.7156 108.306 60.8878C106.427 61.4445 104.683 61.4692 102.838 60.8542" stroke="white" stroke-width="2.68" stroke-linecap="round"/>
<path d="M105.253 62.9676C105.224 63.4317 104.655 63.2431 105.178 63.1269C105.482 63.0592 105.846 62.9676 106.159 62.9676" stroke="white" stroke-width="2.68" stroke-linecap="round"/>
<path d="M106.159 62.9676C105.718 63.3598 104.97 63.1057 104.498 63.4204" stroke="white" stroke-width="2.68" stroke-linecap="round"/>
<path d="M104.649 69.4585V69.6094" stroke="white" stroke-width="2.68" stroke-linecap="round"/>
<path d="M115.065 61.1561C115.744 61.1561 116.424 61.1561 117.103 61.1561C117.886 61.1561 118.449 60.793 119.174 60.5859C120.468 60.2163 122.022 60.4014 123.367 60.4014C124.355 60.4014 124.439 62.4571 123.787 62.8837C122.847 63.4982 120.516 62.9935 119.895 62.0618" stroke="white" stroke-width="2.68" stroke-linecap="round"/>
<path d="M107.517 60.8542C106.816 60.8542 104.1 61.2421 103.76 60.4768C103.307 59.4572 103.291 58.6326 103.291 57.4578C103.291 56.5737 103.118 55.3188 103.475 54.5142C103.754 53.8872 103.825 51.977 103.559 51.3442C103.11 50.2773 102.21 50.2876 101.102 50.2876C100.215 50.2876 101.105 51.0525 101.169 51.2771C101.244 51.5408 101.63 52.4495 101.63 51.8642C101.63 51.646 101.487 50.4175 101.714 50.2876C102.119 50.0563 102.609 50.1366 103.064 50.1366C103.596 50.1366 103.987 50.2485 104.196 50.8243C104.364 51.2864 104.649 52.1721 104.649 52.6273C104.649 53.5335 104.875 54.5903 104.196 55.269C103.888 55.5772 103.478 55.6003 103.106 55.7554C102.488 56.0132 102.188 56.2583 101.899 55.5709C101.625 54.9222 101.781 54.0017 101.781 53.3066C101.781 52.6604 101.69 52.2676 102.469 52.4093C103.839 52.6583 104.102 54.2767 104.339 55.3445C104.413 55.6769 104.446 56.481 104.314 56.7785C104.118 57.22 104.305 57.7094 104.079 58.1371C103.869 58.5329 103.914 57.8391 103.978 57.6926C104.139 57.3254 104.467 57.0816 104.498 56.6611C104.547 56.0068 105.303 55.573 105.404 54.9671C105.451 54.6831 105.706 54.6269 105.706 54.2878C105.706 54.0614 105.706 53.8349 105.706 53.6085C105.706 52.9949 105.729 52.3767 105.706 51.7635C105.639 49.9628 103.148 49.9857 101.932 49.9857" stroke="white" stroke-width="2.68" stroke-linecap="round"/>
<path d="M45.9289 28.2486C45.6508 27.9704 45.4257 27.6447 45.1742 27.3429" stroke="white" stroke-width="2.68" stroke-linecap="round"/>
<path d="M40.3437 29.0034C40.7494 29.0034 39.582 28.6781 39.2871 28.3996C39.0907 28.2141 38.9036 28.2607 38.6497 28.2486C38.2886 28.2314 38.1143 27.9467 37.7691 27.9467C37.0772 27.9467 36.4215 27.3969 35.899 26.9739C35.3781 26.5522 34.6396 26.3014 34.1882 25.7998C33.7672 25.332 34.0037 23.92 34.0037 23.3427C34.0037 22.9721 33.8236 22.3615 34.3056 22.3615C34.6327 22.3615 34.9598 22.3615 35.2868 22.3615C36.3093 22.3615 37.7207 24.8607 37.9201 25.7579C38.008 26.1535 38.2525 26.3251 38.5239 26.5965C38.7745 26.8471 38.84 27.2648 39.1026 27.5274C39.3095 27.7343 39.9245 28.9697 40.0418 28.8524" stroke="white" stroke-width="2.68" stroke-linecap="round"/>
<path d="M35.0604 24.3238C35.3549 24.9497 35.872 25.5413 36.268 26.1353" stroke="white" stroke-width="2.68" stroke-linecap="round"/>
<path d="M8.04 53.6085C8.42577 53.6085 8.90179 53.568 9.16375 53.2311C9.67017 52.58 8.35162 52.9268 8.04 53.0047" stroke="white" stroke-width="2.68" stroke-linecap="round"/>
<path d="M21.1728 62.3637C19.755 62.3637 18.3197 62.4384 16.9462 62.5147C15.4182 62.5996 14.0275 63.8197 13.1053 65.0054C12.5793 65.6816 12.8891 65.9866 13.5917 65.9866C14.4213 65.9866 14.5223 65.7711 15.2018 65.3828C16.2301 64.7952 17.3274 64.0984 18.4557 63.7223" stroke="white" stroke-width="2.68" stroke-linecap="round"/>
<path d="M19.5123 63.4204C19.4691 63.5936 19.0752 63.5071 19.5123 63.1185C19.7328 62.9225 20.138 62.9099 20.4181 62.8166" stroke="white" stroke-width="2.68" stroke-linecap="round"/>
<path d="M55.288 114.744C54.5476 114.744 53.8361 114.68 53.2585 115.197C52.9742 115.451 52.4011 115.498 52.0509 115.708C51.7252 115.904 51.3276 116.037 51.0697 116.337C50.6843 116.787 49.9939 116.967 49.5518 117.461C49.0745 117.995 49.3903 119.049 49.9292 119.348C52.7133 120.895 54.0974 117.436 55.288 115.65" stroke="white" stroke-width="2.68" stroke-linecap="round"/>
<path d="M51.2123 118.065C51.6554 118.016 52.0824 117.563 52.4199 117.31" stroke="white" stroke-width="2.68" stroke-linecap="round"/>
<path d="M62.6846 115.65C62.6846 115.99 62.8466 117.165 63.1375 117.31" stroke="white" stroke-width="2.68" stroke-linecap="round"/>
<path d="M22.3804 87.8746C21.7826 87.8746 18.4557 88.6032 18.4557 89.3087C18.4557 90.3793 21.9506 88.8853 22.2295 88.3275" stroke="white" stroke-width="2.68" stroke-linecap="round"/>
<path d="M19.3614 72.6285H19.6633" stroke="white" stroke-width="2.68" stroke-linecap="round"/>
<path d="M109.48 72.9304C109.547 72.661 110.315 72.7794 110.536 72.7794" stroke="white" stroke-width="2.68" stroke-linecap="round"/>
<path d="M98.6112 98.5922C99.1033 98.6906 99.3659 99.3508 99.3659 99.7998" stroke="white" stroke-width="2.68" stroke-linecap="round"/>
<path d="M84.7236 25.2296C84.7451 25.0576 85.035 25.022 85.1765 24.9277" stroke="white" stroke-width="2.68" stroke-linecap="round"/>
<path d="M64.647 16.4743C64.647 15.7959 65.0658 15.4611 65.0998 14.8139C65.1234 14.3669 65.385 13.9079 65.4017 13.4888C65.4396 12.5432 65.5965 11.275 65.3934 10.3608C65.3326 10.0874 65.0221 9.476 64.7141 9.38799C64.3642 9.28802 64.496 10.1554 64.496 10.3608C64.496 10.8271 64.5253 11.1803 64.6386 11.5768C64.7654 12.0206 64.9489 12.3715 64.9489 12.8515" stroke="white" stroke-width="2.68" stroke-linecap="round"/>
<path d="M74.4589 22.8143C74.4589 22.1602 74.4589 21.5061 74.4589 20.852C74.4589 20.3206 74.3079 19.4037 74.3079 20.4326C74.3079 21.2901 74.6911 23.0001 73.8551 23.4181" stroke="white" stroke-width="2.68" stroke-linecap="round"/>
<path d="M124.273 54.0614C124.542 52.8521 126.693 53.9149 127.141 54.3633" stroke="white" stroke-width="2.68" stroke-linecap="round"/>
<path d="M126.084 67.3451H126.537" stroke="white" stroke-width="2.68" stroke-linecap="round"/>
<path d="M89.856 121.235C89.856 121.7 89.6548 122.292 90.2333 122.292C90.7742 122.292 90.6107 121.733 90.6107 121.31C90.6107 120.542 90.1325 119.335 89.4031 118.971" stroke="white" stroke-width="1.34" stroke-linecap="round"/>
<path d="M107.97 34.5886C108.015 34.2335 108.787 34.3596 109.027 34.2531C109.565 34.0142 109.501 33.4741 110.234 33.8003C111.203 34.2308 110.452 31.8891 109.782 33.23" stroke="white" stroke-width="1.34" stroke-linecap="round"/>
<path d="M49.3 73.66V76.12H48.73L46.765 81.325C46.275 82.635 45.715 83.615 45.085 84.265C44.455 84.925 43.625 85.255 42.595 85.255C42.175 85.255 41.75 85.21 41.32 85.12C40.89 85.04 40.5 84.925 40.15 84.775V82.06H42.22V82.21C42.22 82.46 42.35 82.585 42.61 82.585C42.84 82.585 43.015 82.475 43.135 82.255L40.765 76.12H40.195V73.66H44.65V76.12H44.14L44.92 78.46L45.64 76.12H45.13V73.66H49.3ZM54.2175 82.21C52.7975 82.21 51.6875 81.84 50.8875 81.1C50.0875 80.35 49.6875 79.26 49.6875 77.83C49.6875 76.4 50.0875 75.315 50.8875 74.575C51.6875 73.825 52.7975 73.45 54.2175 73.45C55.6575 73.45 56.7725 73.83 57.5625 74.59C58.3525 75.34 58.7475 76.42 58.7475 77.83C58.7475 79.26 58.3475 80.35 57.5475 81.1C56.7475 81.84 55.6375 82.21 54.2175 82.21ZM54.2175 79.54C54.5075 79.54 54.7225 79.465 54.8625 79.315C55.0125 79.155 55.0875 78.91 55.0875 78.58V77.08C55.0875 76.75 55.0125 76.51 54.8625 76.36C54.7225 76.2 54.5075 76.12 54.2175 76.12C53.9275 76.12 53.7075 76.2 53.5575 76.36C53.4175 76.51 53.3475 76.75 53.3475 77.08V78.58C53.3475 78.91 53.4175 79.155 53.5575 79.315C53.7075 79.465 53.9275 79.54 54.2175 79.54ZM63.6201 85.54C62.9001 85.54 62.2101 85.49 61.5501 85.39C60.9001 85.29 60.3951 85.175 60.0351 85.045V82.585C61.0951 82.775 62.0451 82.87 62.8851 82.87C63.4551 82.87 63.8651 82.78 64.1151 82.6C64.3751 82.43 64.5051 82.105 64.5051 81.625V80.98C64.2551 81.3 63.9301 81.585 63.5301 81.835C63.1401 82.085 62.6901 82.21 62.1801 82.21C61.1601 82.21 60.3901 81.83 59.8701 81.07C59.3601 80.31 59.1051 79.23 59.1051 77.83C59.1051 76.43 59.3601 75.35 59.8701 74.59C60.3901 73.83 61.1601 73.45 62.1801 73.45C62.6901 73.45 63.1401 73.575 63.5301 73.825C63.9301 74.075 64.2551 74.36 64.5051 74.68V73.66H68.6151V76.12H67.9551V81.4C67.9551 82.85 67.5951 83.9 66.8751 84.55C66.1551 85.21 65.0701 85.54 63.6201 85.54ZM63.6351 79.54C63.9251 79.54 64.1401 79.465 64.2801 79.315C64.4301 79.155 64.5051 78.91 64.5051 78.58V77.08C64.5051 76.75 64.4301 76.51 64.2801 76.36C64.1401 76.2 63.9251 76.12 63.6351 76.12C63.3451 76.12 63.1251 76.2 62.9751 76.36C62.8351 76.51 62.7651 76.75 62.7651 77.08V78.58C62.7651 78.91 62.8351 79.155 62.9751 79.315C63.1251 79.465 63.3451 79.54 63.6351 79.54ZM78.9095 79.54V82H74.7995V80.83C74.0795 81.75 73.1795 82.21 72.0995 82.21C71.2695 82.21 70.6445 81.95 70.2245 81.43C69.8145 80.91 69.6095 80.195 69.6095 79.285V76.12H68.9495V73.66H73.0595V78.58C73.0595 78.91 73.1295 79.155 73.2695 79.315C73.4195 79.465 73.6395 79.54 73.9295 79.54C74.2195 79.54 74.4345 79.465 74.5745 79.315C74.7245 79.155 74.7995 78.91 74.7995 78.58V76.12H73.9895V73.66H78.2495V79.54H78.9095ZM85.7277 73.45C85.9277 73.45 86.1177 73.47 86.2977 73.51C86.4777 73.55 86.6277 73.6 86.7477 73.66V76.525C86.3377 76.355 85.8977 76.27 85.4277 76.27C84.7977 76.27 84.3127 76.435 83.9727 76.765C83.6327 77.095 83.4627 77.585 83.4627 78.235V79.54H84.8127V82H79.3527V79.54H80.0127V76.12H79.3527V73.66H83.4627V74.755C83.7427 74.335 84.0627 74.015 84.4227 73.795C84.7827 73.565 85.2177 73.45 85.7277 73.45ZM90.9379 82.21C89.8779 82.21 89.0779 81.955 88.5379 81.445C88.0079 80.925 87.7429 80.055 87.7429 78.835V76.12H87.0829V73.66C87.4629 73.66 87.7479 73.565 87.9379 73.375C88.1279 73.175 88.2229 72.905 88.2229 72.565V71.89H91.4029V73.66H93.4279V76.12H91.4029V78.58C91.4029 78.91 91.4729 79.155 91.6129 79.315C91.7629 79.465 91.9829 79.54 92.2729 79.54C92.6529 79.54 93.0679 79.495 93.5179 79.405V81.76C93.2379 81.87 92.8579 81.97 92.3779 82.06C91.9079 82.16 91.4279 82.21 90.9379 82.21Z" fill="#00BBC9"/>
<path d="M76.9214 40.3977L76.8544 39.6942L76.1844 39.9175C75.0361 40.3165 73.8099 40.4389 72.6055 40.2749C71.3398 40.0785 70.0444 40.253 68.8758 40.7774C68.2563 41.0412 67.7127 41.4557 67.2943 41.9833C66.876 42.5108 66.5962 43.1347 66.4806 43.798C66.3306 44.6548 66.4056 45.536 66.6983 46.3551C66.8868 45.9297 67.107 45.5191 67.3571 45.1268C67.9245 44.292 68.7107 43.6294 69.6296 43.2117C70.5148 42.8075 71.4823 42.6163 72.4547 42.6534C71.529 42.7949 70.6429 43.1277 69.8529 43.6305C69.4718 43.8699 69.1228 44.157 68.8144 44.4847C68.5194 44.8123 68.2593 45.1697 68.0383 45.5511C67.6232 46.3484 67.3278 47.2026 67.1617 48.086C66.9827 48.9722 66.8855 49.8731 66.8714 50.7771H67.9881C68.0405 49.9663 68.1506 49.1603 68.3175 48.3651C69.0921 48.7834 69.9608 48.9968 70.8411 48.9849C71.6622 48.9843 72.4747 48.8191 73.2308 48.4991C77.4797 46.6845 76.9214 40.649 76.9214 40.3977Z" fill="#00BBC9"/>
<path d="M56.0941 40.2521L55.3183 40.3002L55.5396 41.0449C55.9366 42.3218 56.0268 43.6743 55.8029 44.9925C55.5411 46.3769 55.6861 47.8075 56.2203 49.1111C56.4879 49.8018 56.9239 50.4145 57.4888 50.8935C58.0536 51.3725 58.7294 51.7027 59.4544 51.8538C60.391 52.0498 61.3624 51.9992 62.2736 51.707C61.8128 51.4844 61.3693 51.2274 60.9471 50.9382C60.0498 50.2842 59.3499 49.3959 58.9239 48.3706C58.5116 47.3828 58.3364 46.3121 58.4123 45.2444C58.5344 46.2672 58.8682 47.2534 59.3923 48.1402C59.6418 48.5679 59.9448 48.9619 60.2939 49.3129C60.6434 49.6491 61.0269 49.9479 61.4382 50.2047C62.2998 50.69 63.2281 51.0456 64.1933 51.2602C65.1612 51.4891 66.1481 51.6286 67.1415 51.6768L67.1819 50.4492C66.2924 50.3621 65.4102 50.2119 64.5421 49.9997C65.03 49.1632 65.296 48.2158 65.3148 47.2476C65.3439 46.3449 65.1917 45.4456 64.8673 44.6028C63.0261 39.8658 56.3704 40.2611 56.0941 40.2521Z" fill="#00F490"/>
</svg>
