<svg width="130" height="130" viewBox="0 0 130 130" fill="none" xmlns="http://www.w3.org/2000/svg">
<circle cx="66.838" cy="63.5307" r="37.544" fill="white"/>
<path d="M41.4662 64.1061H42.2566V56.9925H41.4662V54.4H48.722C50.0394 54.4 51.0669 54.6687 51.8046 55.2062C52.5423 55.7437 52.9112 56.513 52.9112 57.5142C52.9112 58.1359 52.7636 58.6629 52.4685 59.095C52.1735 59.5165 51.8257 59.8379 51.4252 60.0592C51.0353 60.27 50.6559 60.4123 50.287 60.4861V60.6441C51.0353 60.7179 51.7098 60.955 52.3105 61.3555C52.9112 61.756 53.2115 62.4726 53.2115 63.5054C53.2115 64.612 52.7952 65.4234 51.9627 65.9398C51.1301 66.4457 50.0499 66.6986 48.722 66.6986H41.4662V64.1061ZM47.5364 59.585C47.8421 59.585 48.0686 59.506 48.2162 59.3479C48.3743 59.1793 48.4533 58.9211 48.4533 58.5733V58.0042C48.4533 57.6564 48.3743 57.4035 48.2162 57.2454C48.0686 57.0768 47.8421 56.9925 47.5364 56.9925H46.6828V59.585H47.5364ZM47.6471 64.1061C47.9527 64.1061 48.1793 64.0271 48.3268 63.869C48.4849 63.7004 48.564 63.4422 48.564 63.0944V62.3988C48.564 62.0511 48.4849 61.7981 48.3268 61.64C48.1793 61.4714 47.9527 61.3871 47.6471 61.3871H46.6828V64.1061H47.6471ZM59.6674 66.9199C57.7388 66.9199 56.2476 66.4141 55.1937 65.4024C54.1504 64.3906 53.6287 62.773 53.6287 60.5493C53.6287 58.3256 54.1504 56.708 55.1937 55.6962C56.2476 54.6845 57.7388 54.1787 59.6674 54.1787C61.5959 54.1787 63.0819 54.6845 64.1252 55.6962C65.1791 56.708 65.706 58.3256 65.706 60.5493C65.706 62.773 65.1791 64.3906 64.1252 65.4024C63.0819 66.4141 61.5959 66.9199 59.6674 66.9199ZM59.6674 64.1061C60.0257 64.1061 60.2944 64.0112 60.4736 63.8216C60.6527 63.6319 60.7423 63.3368 60.7423 62.9363V58.1623C60.7423 57.7618 60.6527 57.4667 60.4736 57.277C60.2944 57.0873 60.0257 56.9925 59.6674 56.9925C59.309 56.9925 59.0403 57.0873 58.8611 57.277C58.682 57.4667 58.5924 57.7618 58.5924 58.1623V62.9363C58.5924 63.3473 58.682 63.6477 58.8611 63.8374C59.0403 64.0165 59.309 64.1061 59.6674 64.1061ZM72.1872 66.9199C70.2586 66.9199 68.7674 66.4141 67.7135 65.4024C66.6702 64.3906 66.1485 62.773 66.1485 60.5493C66.1485 58.3256 66.6702 56.708 67.7135 55.6962C68.7674 54.6845 70.2586 54.1787 72.1872 54.1787C74.1157 54.1787 75.6017 54.6845 76.645 55.6962C77.6989 56.708 78.2258 58.3256 78.2258 60.5493C78.2258 62.773 77.6989 64.3906 76.645 65.4024C75.6017 66.4141 74.1157 66.9199 72.1872 66.9199ZM72.1872 64.1061C72.5455 64.1061 72.8142 64.0112 72.9934 63.8216C73.1725 63.6319 73.2621 63.3368 73.2621 62.9363V58.1623C73.2621 57.7618 73.1725 57.4667 72.9934 57.277C72.8142 57.0873 72.5455 56.9925 72.1872 56.9925C71.8289 56.9925 71.5601 57.0873 71.381 57.277C71.2018 57.4667 71.1122 57.7618 71.1122 58.1623V62.9363C71.1122 63.3473 71.2018 63.6477 71.381 63.8374C71.5601 64.0165 71.8289 64.1061 72.1872 64.1061ZM78.7074 58.0358L79.3871 56.4234H78.6125V54.4H80.8256V56.4234L79.7665 58.0358H78.7074ZM86.674 66.9199C85.6623 66.9199 84.7032 66.8356 83.7969 66.667C82.9011 66.4878 82.2108 66.2876 81.7261 66.0663V62.9363H85.2038C85.2038 63.263 85.2776 63.5001 85.4251 63.6477C85.5727 63.7952 85.8414 63.869 86.2313 63.869C86.558 63.869 86.7899 63.8216 86.9269 63.7267C87.0744 63.6213 87.1482 63.4685 87.1482 63.2683C87.1482 63.0997 87.0797 62.9574 86.9427 62.8415C86.8057 62.715 86.5686 62.5885 86.2313 62.4621L84.8719 61.9878C83.7021 61.5452 82.859 61.0235 82.3426 60.4228C81.8367 59.8221 81.5838 59.0107 81.5838 57.9884C81.5838 56.7448 81.9895 55.8016 82.801 55.1588C83.623 54.5054 84.9878 54.1787 86.8953 54.1787C87.8121 54.1787 88.671 54.2735 89.472 54.4632C90.2835 54.6424 90.9369 54.8848 91.4322 55.1904V58.02H88.2706C88.2706 57.4931 87.9439 57.2296 87.2905 57.2296C86.9743 57.2296 86.7477 57.2718 86.6107 57.3561C86.4843 57.4299 86.421 57.5669 86.421 57.7671C86.421 57.9462 86.4948 58.0885 86.6424 58.1939C86.8004 58.2993 87.0534 58.4099 87.4011 58.5259L88.7764 59.0001C89.8935 59.3795 90.705 59.8748 91.2109 60.4861C91.7273 61.0868 91.9855 61.8772 91.9855 62.8573C91.9855 64.1957 91.5323 65.2074 90.626 65.8924C89.7302 66.5774 88.4128 66.9199 86.674 66.9199Z" fill="#00BBC9"/>
<path d="M29.9845 55.3797C29.9845 53.6686 29.2744 52.5076 28.7813 50.9296C28.2119 49.1075 26.8369 48.2004 25.3244 47.2054C22.1915 45.1442 17.6235 45.7874 14.5144 43.9585C13.3244 43.2585 12.4517 42.4603 12.4517 41.1128C12.4517 40.1837 12.0175 37.9558 13.0629 37.5795C14.7981 36.9548 17.0409 37.6173 18.6207 38.2098C19.9381 38.7038 20.7115 40.663 21.7338 41.6285C23.7919 43.5723 25.874 46.0976 29.106 46.0976C29.7365 46.0976 33.6423 46.3304 33.2313 46.9762C32.7621 47.7136 30.8316 49.1916 29.9845 49.1916C29.2278 49.1916 28.223 49.3649 27.5017 49.1152C26.4367 48.7466 26.8852 48.0197 26.3557 47.339C25.631 46.4072 24.1005 45.4306 23.1089 44.9899C19.6164 43.4376 18.2578 40.2533 14.1706 40.2533" stroke="white" stroke-width="3.952" stroke-linecap="round"/>
<path d="M31.3596 50.9105C32.1933 50.9105 32.2374 51.1741 32.391 51.9418" stroke="white" stroke-width="3.952" stroke-linecap="round"/>
<path d="M33.0786 46.0976C33.8262 45.433 34.7975 45.2808 34.7975 44.2068C34.7975 43.0898 34.5499 42.4116 34.1863 41.3611C33.8662 40.4365 33.4223 39.3259 33.4223 38.3434C33.4223 35.9106 33.4223 37.0236 33.4223 38.7063C33.4223 40.4404 32.7348 45.5971 32.7348 43.863C32.7348 42.4468 32.1602 37.8469 34.4537 37.8469C35.5204 37.8469 36.1119 38.9345 37.0511 39.2029C38.0327 39.4833 39.0186 38.9767 39.9542 38.8782C41.1108 38.7565 41.2828 37.036 42.1887 36.8346C43.6918 36.5006 43.7358 35.6228 43.7358 34.2372C43.7358 32.4961 43.0506 29.5961 45.6265 29.5961C47.6234 29.5961 49.3416 30.2837 51.2989 30.2837C57.2181 30.2837 57.1432 23.9855 57.1432 19.4546C57.1432 16.7072 56.2051 14.936 55.0996 12.5408C54.4007 11.0266 52.4396 8.40058 53.9728 7.17401C55.754 5.749 56.3417 7.34994 56.8758 8.89291C57.7053 11.2891 57.8308 13.813 57.8308 16.3606C57.8308 18.4769 57.3922 21.1385 57.8499 23.198C58.0163 23.9471 58.8443 24.8058 59.1295 25.5472C59.5967 26.7619 60.6119 26.5485 61.2686 27.5335" stroke="white" stroke-width="3.952" stroke-linecap="round"/>
<path d="M45.7984 33.3777C45.7984 32.073 47.3032 31.4221 46.8298 31.6588" stroke="white" stroke-width="3.952" stroke-linecap="round"/>
<path d="M35.485 40.5971C36.1519 40.6712 36.9095 41.0719 37.5477 41.2847" stroke="white" stroke-width="3.952" stroke-linecap="round"/>
<path d="M60.9248 26.1583C61.221 28.5279 67.7451 23.8649 68.2206 23.4845C68.933 22.9145 70.9932 24.2369 71.3146 24.7832C71.8596 25.7097 72.5365 27.5335 73.4728 27.5335C74.6856 27.5335 75.8464 27.609 76.9106 27.0178C77.5034 26.6885 79.7971 25.588 80.4439 26.2347C81.1051 26.896 81.1526 28.6566 81.2078 29.5962C81.2475 30.2708 83.3863 29.8078 82.0482 28.0873C81.2419 27.0507 80.7438 25.368 79.2597 26.1774C77.9646 26.8839 75.9187 28.183 78.4576 28.5457C79.1805 28.649 81.2109 27.9769 81.5516 27.3807C81.8598 26.8413 82.559 27.3047 81.7235 26.6549C80.8946 26.0102 80.4837 25.4599 79.3743 26.1583C78.2744 26.8509 77.4652 28.5648 76.0511 28.5648C74.6136 28.5648 74.7844 27.5335 73.2627 27.5335C72.1259 27.5335 69.3578 28.0295 68.507 27.0369C68.354 26.8584 67.2544 26.5795 67.9914 26.1583C68.5235 25.8543 69.2101 25.5399 69.5193 26.1583" stroke="white" stroke-width="2.63467" stroke-linecap="round"/>
<path d="M82.2392 28.5648C83.4237 28.6964 83.5674 30.8876 84.9894 30.9713C86.339 31.0506 87.5546 31.6588 88.9429 31.6588C90.5729 31.6588 91.645 31.4161 93.2019 30.9713C94.2839 30.6621 96.9856 28.5044 97.5565 27.648C98.5344 26.1812 99.8437 25.6056 101.147 24.4394C102.477 23.2493 103.262 22.033 105.081 22.033C106.601 22.033 107.039 23.7103 107.316 24.9551C107.708 26.7199 104.821 27.4553 103.63 28.221C101.755 29.4264 100.012 30.3107 98.0531 31.2386C96.7107 31.8745 94.7524 31.9783 93.9086 33.244C92.9897 34.6225 92.6558 36.4127 91.674 37.675C90.7607 38.8493 90.4899 35.4184 90.4899 34.7528C90.4899 32.7976 93.0658 33.1567 94.5389 32.1936C95.2286 31.7426 96.2787 31.5683 96.8498 31.124C97.7323 30.4377 98.5176 29.7165 99.5619 29.2524C100.448 28.8583 102.035 26.809 102.675 25.9864C103.39 25.0666 105.832 25.9658 104.585 24.0956" stroke="white" stroke-width="2.63467" stroke-linecap="round"/>
<path d="M91.1775 32.3464C90.5294 32.4112 89.4704 32.7166 89.0002 33.1867C88.7383 33.4486 90.2899 33.0339 90.4899 33.0339C91.5446 33.0339 93.9277 33.503 93.9277 32.0026" stroke="white" stroke-width="2.63467" stroke-linecap="round"/>
<path d="M99.4282 27.5334C100.038 27.5334 100.413 27.5625 100.88 27.1133C101.26 26.7479 101.835 25.3256 101.835 25.8527C101.835 27.371 101.468 27.4265 100.116 27.8772" stroke="white" stroke-width="2.63467" stroke-linecap="round"/>
<path d="M93.5839 37.5031C94.6782 37.5031 96.9815 37.8147 97.7857 38.458C98.6448 39.1454 100.979 37.5031 102.007 37.5031C102.554 37.5031 105.863 36.528 104.929 35.5932C104.153 34.8171 102.641 36.5243 101.968 36.8346C100.719 37.4115 99.5487 38.2614 98.3205 38.8018C97.787 39.0366 97.6068 39.7803 98.2441 39.3748C98.745 39.056 99.2379 38.5797 99.8484 38.5344C100.947 38.453 101.774 37.7904 102.713 37.5222C103.399 37.3263 103.998 37.739 104.509 37.0829C104.586 36.9833 102.529 37.903 102.026 38.1907C101.335 38.5852 100.135 38.9219 99.772 39.7377C99.2686 40.8703 97.3394 42.2579 98.5879 43.863C99.2489 44.7129 99.6904 44.8897 100.536 45.4101C101.35 45.911 102.667 45.899 103.21 46.4414" stroke="white" stroke-width="2.63467" stroke-linecap="round"/>
<path d="M95.6466 40.2533C96.9521 40.2533 97.0217 40.3229 97.0217 41.6284" stroke="white" stroke-width="2.63467" stroke-linecap="round"/>
<path d="M97.0217 38.5344C97.1493 37.5135 99.411 37.8468 100.116 37.8468" stroke="white" stroke-width="2.63467" stroke-linecap="round"/>
<path d="M29.9845 55.7234C27.1897 56.0339 24.2591 61.0784 28.0937 61.9305C28.6933 62.0638 28.9383 62.528 29.3734 62.8664C29.6928 63.1148 29.0835 62.1096 28.9723 61.7204C28.7949 61.0995 28.6807 60.1463 28.6094 59.505C28.5084 58.5956 27.244 59.929 26.8905 60.1161C24.5229 61.3696 29.9845 64.1059 29.9845 64.8527C29.9845 68.7758 24.484 70.1275 24.484 73.7719C24.484 75.5135 23.6064 76.5508 24.9806 78.05C26.205 79.3857 27.9845 79.788 29.7171 79.788C30.9601 79.788 31.1004 79.4406 31.8562 80.6284C32.1532 81.0951 33.1223 82.3911 32.1618 82.5192C30.6644 82.7188 29.9694 82.378 28.8768 81.5833C28.1587 81.0611 27.0454 81.5941 26.2793 80.743C25.1018 79.4346 24.0911 73.7746 26.0311 72.9124C26.6201 72.6506 27.3551 72.2743 27.9982 72.2249C29.1547 72.1359 29.6536 71.2311 28.342 72.4922C27.0033 73.7795 27.2343 75.1008 27.2343 76.8468C27.2343 77.5064 27.1279 78.179 27.5017 78.7567C28.1537 79.7643 29.6407 78.3834 29.6407 77.5535C29.6407 76.2356 29.6407 72.2822 29.6407 73.6C29.6407 74.7051 29.297 75.7374 29.297 76.8468C29.297 77.8406 29.9136 77.972 30.5957 78.6803C32.0013 80.1399 32.448 81.9953 33.2504 83.7606C33.6873 84.7216 31.7034 88.1688 31.7034 85.8042C31.7034 85.1433 31.847 84.4294 31.3597 83.9134C30.3246 82.8175 30.513 84.3531 31.0159 84.9447C31.6371 85.6755 31.7034 86.2671 31.7034 87.1793C31.7034 88.5378 31.3156 88.5079 30.5002 89.4139C29.9548 90.0199 28.9425 90.1339 28.533 90.789C28.1714 91.3675 27.3947 92.0037 26.8905 92.5079C25.8988 93.4996 25.0002 94.4436 24.1403 95.4109C22.6402 97.0985 22.4214 98.0589 22.4214 100.396C22.4214 102.259 22.5101 104.11 24.7514 104.196C25.9873 104.244 27.7503 104.516 28.6094 103.012C29.3411 101.732 30.115 100.524 30.844 99.2116C31.487 98.0541 32.6603 95.9107 32.7348 94.5706C32.8232 92.9788 34.2259 91.9032 34.7975 90.6171C35.4927 89.0529 38.7611 90.1014 39.9542 90.1014" stroke="white" stroke-width="2.63467" stroke-linecap="round"/>
<path d="M24.1403 74.2875C24.1403 75.1319 23.9289 76.3149 24.2167 77.1141C24.3513 77.4881 25.7233 79.5215 26.012 79.7689C26.8572 80.4934 27.5497 81.6161 28.6094 82.118C29.45 82.5162 30.387 82.5829 30.653 83.7796C30.8556 84.6916 30.6721 85.8579 30.6721 86.7973C30.6721 87.848 31.3387 84.3889 30.5957 83.6459C30.382 83.4323 30.3283 85.8434 30.3283 86.1479C30.3283 87.4385 30.1036 87.9129 29.6407 89.07" stroke="white" stroke-width="2.63467" stroke-linecap="round"/>
<path d="M33.4223 76.694C32.3623 76.694 31.7484 78.0309 31.1878 78.0309C30.8775 78.0309 31.0159 76.2218 31.0159 75.9873C31.0159 75.1767 31.2735 73.8166 30.9395 73.0652C30.8008 72.7532 29.8671 71.5506 29.6407 71.5373C28.6198 71.4772 28.9253 71.8299 29.297 71.3654C29.6402 70.9363 30.9833 69.8447 29.4689 70.1812C27.3604 70.6498 25.1237 74.9255 29.297 73.2562" stroke="white" stroke-width="2.63467" stroke-linecap="round"/>
<path d="M34.7975 59.1612C33.1111 59.1612 31.6105 58.4736 29.9845 58.4736C28.229 58.4736 29.0618 60.066 29.6407 61.2239" stroke="white" stroke-width="2.63467" stroke-linecap="round"/>
<path d="M34.4537 81.5069C34.4537 82.7673 33.9373 85.3911 34.5301 86.5108C35.0435 87.4806 37.8664 85.6027 36.8601 87.8668C36.2213 89.3041 32.9171 89.5752 31.7034 90.7889C31.227 91.2653 30.792 91.7004 30.3283 92.1641C29.7041 92.7882 30.3533 93.8337 29.4689 94.2267C28.9787 94.4446 28.4528 95.3366 28.1128 95.7738C27.6141 96.415 26.8278 96.4605 26.2029 96.9961C24.8941 98.1179 24.8278 98.7134 24.8278 100.415C24.8278 102.192 28.2596 101.674 26.0501 102.477C25.8316 102.557 24.962 103.169 24.8278 103.337C24.3684 103.911 26.7547 103.128 27.0815 102.974C27.9304 102.575 28.6089 102.559 29.297 101.79C29.5779 101.476 30.3354 99.8575 29.6407 99.7272C27.8587 99.3931 31.4888 95.5155 31.8753 94.9143C33.1847 92.8775 29.1418 96.1306 28.6858 97.3972C28.179 98.805 27.4671 99.78 26.5467 100.93C25.6325 102.073 25.3113 98.361 25.7064 97.6837C26.5919 96.1655 27.7328 94.4157 28.9532 93.1954C29.7293 92.4193 30.6033 91.7808 31.3596 90.9799C32.2183 90.0707 32.7448 88.7544 33.6133 87.8859C34.2904 87.2088 36.7525 89.4925 37.5477 89.7576" stroke="white" stroke-width="2.63467" stroke-linecap="round"/>
<path d="M41.6731 90.4451C40.0837 90.4451 39.954 88.6497 38.579 87.9622C37.6049 87.4752 36.7944 87.1614 35.8479 86.5107C35.3451 86.165 34.3994 84.7094 34.1099 85.2884" stroke="white" stroke-width="2.63467" stroke-linecap="round"/>
<path d="M34.1099 91.4764C33.6894 92.37 32.8849 93.0571 32.0472 93.6155C31.3704 94.0667 31.2552 95.2277 31.0159 95.9456" stroke="white" stroke-width="2.63467" stroke-linecap="round"/>
<path d="M29.9845 98.0083C31.051 98.0083 31.8004 97.6615 32.3146 96.6331C32.4619 96.3386 32.391 95.9205 32.391 95.6018C32.391 94.9351 32.8419 94.9253 33.0404 94.3795C33.5245 93.0481 34.0549 91.1327 35.8288 91.1327C38.5015 91.1327 40.3267 91.6969 42.8381 92.4696C44.8263 93.0813 46.3738 93.1953 48.5487 93.1953" stroke="white" stroke-width="2.63467" stroke-linecap="round"/>
<path d="M40.2979 91.8203C40.3992 93.4402 43.0482 93.3101 43.0482 94.7424C43.0482 95.1117 43.5345 95.8145 43.9267 95.9265C44.4593 96.0787 46.1423 95.9456 45.5883 95.9456C45.1082 95.9456 42.1713 97.8687 42.0168 96.6332C41.9066 95.7511 39.3055 93.4739 40.0306 95.1053C40.6828 96.5728 42.5932 96.6332 43.8885 96.6332C44.7167 96.6332 47.5736 95.6963 48.0139 96.1366C49.151 97.2737 49.6609 99.8064 51.7191 99.7272C53.3604 99.6641 51.5879 99.3628 51.3753 98.7723C51.0208 97.7874 51.2502 97.7547 51.7191 98.2757C52.9179 99.6077 54.4858 99.0943 55.6153 100.224C56.3682 100.977 56.1615 101.467 56.6275 102.306C57.1502 103.246 57.5797 103.803 58.3082 104.693C59.2003 105.783 60.8668 105.915 62.2999 105.915C63.6442 105.915 64.579 105.663 65.6613 104.884C66.6479 104.174 65.8436 103.697 67.3802 103.241C67.9863 103.062 68.7195 103.165 69.3474 103.165C70.0766 103.165 69.9365 101.831 70.5124 101.312C70.7098 101.135 68.4507 102.903 67.9914 103.165C66.8766 103.802 66.0064 104.546 64.7446 105.037C63.8741 105.375 61.0604 105.571 61.9943 105.571C63.983 105.571 64.7115 103.259 66.5972 102.84C67.3475 102.674 68.0815 102.213 68.8317 102.134C70.0235 102.008 69.8542 101.199 70.627 102.057C71.193 102.686 72.3992 102.69 72.8807 103.509C73.3939 104.381 73.8386 104.976 74.2558 105.915C74.9717 107.526 74.3895 109.238 74.6951 110.919C75.0552 112.9 75.3573 114.817 76.0511 116.725C77.0069 119.354 78.511 120.01 81.1314 120.01C82.7544 120.01 84.1203 119.11 84.913 117.604C86.4375 114.707 84.7097 111.066 82.9267 108.837C81.7442 107.359 79.7937 106.841 78.4576 105.571C77.3891 104.556 76.6657 103.439 75.9747 102.134C75.3834 101.017 75.0198 98.7837 75.0198 101.274C75.0198 103.286 75.0198 105.298 75.0198 107.309C75.0198 110.106 75.435 113.401 76.8151 115.885C77.5041 117.125 77.4262 114.163 77.4262 113.822C77.4262 112.308 77.5511 110.748 77.1589 109.277C77.053 108.88 77.0825 107.013 77.0825 108.398C77.0825 109.888 77.0825 111.378 77.0825 112.867C77.0825 113.421 77.0642 114.048 77.3499 114.548C77.7456 115.241 77.5534 112.965 77.6936 112.18C78.0193 110.356 78.4967 113.626 78.534 113.975C78.6885 115.422 78.965 116.85 79.1451 118.291" stroke="white" stroke-width="2.63467" stroke-linecap="round"/>
<path d="M80.1765 118.291C82.164 117.408 81.7191 113.473 80.6922 112.218C80.1918 111.606 79.647 109.635 79.4698 108.837C79.3341 108.226 78.0306 106.558 77.5981 106.125C76.9969 105.524 77.7701 107.614 78.1138 107.978C78.7782 108.681 79.4535 109.356 80.1765 110.041C81.578 111.368 82.583 113.55 82.583 115.541C82.583 118.114 82.9267 116.636 82.9267 114.853C82.9267 113.676 82.9267 112.498 82.9267 111.32C82.9267 110.4 82.6129 113.153 82.2392 113.994C81.9706 114.598 81.62 115.314 81.2842 115.885C80.5778 117.086 79.6443 114.604 79.4125 114.166C78.808 113.024 77.2072 112.2 76.5477 110.881C76.1315 110.049 75.9983 108.956 75.3636 108.322" stroke="white" stroke-width="2.63467" stroke-linecap="round"/>
<path d="M73.3009 101.79C73.2541 101.415 65.698 101.79 64.5345 101.79C62.9117 101.79 63.2546 102.504 62.2235 103.432C61.679 103.922 60.3051 103.508 59.8934 102.993C59.4543 102.444 56.0045 99.3834 57.8308 99.3834C58.7294 99.3834 61.1026 101.956 61.6123 101.446" stroke="white" stroke-width="2.63467" stroke-linecap="round"/>
<path d="M47.5173 93.5391C46.5469 93.6604 45.3328 93.8629 44.4233 94.2267" stroke="white" stroke-width="2.63467" stroke-linecap="round"/>
<path d="M23.7965 101.446C23.7965 102.073 23.9271 101.994 24.484 102.134" stroke="white" stroke-width="2.63467" stroke-linecap="round"/>
<path d="M81.8954 109.697C83.0325 109.823 82.8109 111.226 82.3156 110.384C81.5142 109.022 81.8954 112.491 81.8954 113.154C81.8954 114.284 81.6188 115.904 82.2392 116.897C82.7109 117.652 82.8558 118.659 81.8954 118.979" stroke="white" stroke-width="2.63467" stroke-linecap="round"/>
<path d="M37.8915 91.4764C37.3556 91.5434 39.2367 92.9002 39.534 93.2717C40.7286 94.7651 39.9918 95.6972 42.3606 96.2894" stroke="white" stroke-width="2.63467" stroke-linecap="round"/>
<path d="M37.8915 92.164C38.7682 92.9433 39.3916 93.2856 39.8778 94.3795C40.4733 95.7195 40.9009 95.3947 39.9542 94.8379C38.6079 94.0459 39.0474 93.3217 38.5026 92.164C38.4871 92.1311 37.8564 94.2602 39.4576 94.5514C40.9793 94.828 42.0278 95.651 40.4507 94.0739C40.046 93.6691 39.6104 93.8918 39.6104 94.3986C39.6104 94.9974 40.161 94.8995 40.2788 95.4299C40.696 97.3071 43.9318 97.6484 45.4547 96.6332" stroke="white" stroke-width="2.63467" stroke-linecap="round"/>
<path d="M70.2131 103.193C70.7453 103.193 71.3718 102.769 71.7301 103.342C71.8397 103.517 72.2584 103.571 72.4474 103.713C72.7131 103.912 72.8473 104.232 73.1811 104.232" stroke="white" stroke-width="2.63467" stroke-linecap="round"/>
<path d="M75.7039 100.671C75.7916 99.8809 76.4516 98.5932 77.3363 98.5932C77.8564 98.5932 76.8615 98.7877 76.6685 98.9807C76.396 99.2532 76.2975 100.066 76.2975 100.448C76.2975 100.858 76.2975 101.267 76.2975 101.677C76.2975 102.62 76.2878 100.908 76.2975 100.638C76.3318 99.6775 77.446 98.775 78.3009 98.585C79.2131 98.3823 79.6456 97.6327 80.601 98.4448C80.8703 98.6737 81.2119 98.7416 81.5574 98.7416C81.8629 98.7416 81.9828 98.9871 82.2417 99.0302C82.6271 99.0944 82.9129 99.1868 83.3464 99.1868C84.4591 99.1868 84.6066 98.3353 85.02 97.5544C85.2186 97.1793 85.4982 94.3374 85.4982 95.988C85.4982 96.8111 84.7169 97.5544 83.8658 97.5544C83.3024 97.5544 83.2722 97.5313 83.2722 96.9609C83.2722 96.3694 83.2421 96.249 83.6432 95.8479C84.4168 95.0743 84.9259 94.6083 86.1577 94.9162C87.2392 95.1866 88.3298 95.3186 89.2824 95.8479C90.3413 96.4362 91.3986 96.5157 92.6213 96.5157C93.7306 96.5157 93.6601 95.2055 93.6601 94.3556C93.6601 93.2776 93.8124 92.0661 93.5447 91.0249C93.1671 89.5564 92.2493 92.1238 91.9535 92.3605C91.6085 92.6365 89.6115 93.0442 90.4778 93.9104C90.7141 94.1468 91.2584 94.2897 91.5825 94.2897C92.2245 94.2897 92.1687 93.238 92.2915 92.8387C92.4228 92.4122 92.318 92.0719 92.6213 91.6927C92.8235 91.4399 93.1576 91.0973 93.2232 90.8023C93.3093 90.4147 93.7927 90.2854 94.1053 90.1015C94.5224 89.8562 94.6999 89.3639 95.1441 89.1287C96.0876 88.6292 96.5575 88.2053 97.7411 88.2053C99.0239 88.2053 100.359 88.0569 101.674 88.0569C102.836 88.0569 104.074 89.1064 105.21 89.5327C106.326 89.9511 106.965 91.2674 107.725 92.0967C108.128 92.5364 108.187 93.2368 108.426 93.762C108.704 94.3741 108.004 94.4381 107.535 94.4381C107.106 94.4381 106.531 93.9645 106.126 93.762C105.569 93.4838 105.496 92.7446 105.169 92.2451C104.652 91.4533 103.927 90.6319 103.529 89.7553C103.002 88.5967 102.544 87.5453 101.674 86.573C100.968 85.7845 100.569 84.8745 99.8186 84.1244C99.4513 83.7571 99.3893 83.2891 99.2663 82.797C99.032 81.8599 98.8835 82.1597 98.8541 82.896C98.8218 83.7021 98.0162 85.2497 98.9283 85.9794C99.0534 86.0795 97.8236 86.1278 97.6009 86.1278C97.0293 86.1278 96.4577 86.1278 95.8861 86.1278" stroke="white" stroke-width="2.63467" stroke-linecap="round"/>
<path d="M100.19 88.5021C100.867 87.9004 102.437 89.9456 102.679 90.4313C102.843 90.7585 103.14 91.512 103.454 91.7339C103.769 91.9562 104.288 92.3489 104.493 92.6572" stroke="white" stroke-width="2.63467" stroke-linecap="round"/>
<path d="M97.9637 86.7213C98.0336 86.162 99.9754 87.2609 100.19 87.4633C100.538 87.7919 101.071 87.9653 101.451 88.2795C101.725 88.5056 102.493 89.7257 102.193 89.3925C101.643 88.7815 100.777 88.3261 99.9753 87.9827C99.3115 87.6982 98.7345 87.7601 97.9966 87.7601C97.7859 87.7601 98.5624 87.9001 98.7057 87.9085C99.0954 87.9314 99.5746 87.7923 99.8928 88.0651C100.386 88.4879 100.869 88.8774 101.41 89.2441C101.871 89.5571 102.199 89.9594 102.638 90.2829C103.05 90.5861 103.913 91.3995 104.106 91.8493C104.416 92.5732 104.935 93.303 105.763 93.5394C106.47 93.7415 107.322 93.7838 107.758 94.438" stroke="white" stroke-width="2.63467" stroke-linecap="round"/>
<path d="M100.338 83.7534C100.338 83.4381 100.194 81.5446 100.486 81.5274C101.65 81.4589 103.186 81.3012 104.271 81.684C105.406 82.0846 106.545 83.1454 107.725 83.3082C108.001 83.3463 111.023 84.9786 111.023 84.4129C111.023 83.972 111.155 83.3745 110.759 83.0773C110.268 82.7094 109.692 82.5252 109.135 82.2776C108.045 81.7933 106.803 82.0468 105.763 81.5934C105.325 81.4024 104.795 81.4779 104.378 81.2306C104.169 81.1066 103.963 80.9245 103.751 80.8184C103.201 80.5431 102.854 80.08 102.341 79.7384C102.082 79.5654 102.002 79.2868 101.962 79.0046C101.921 78.7196 101.614 78.6262 101.525 78.3368C101.275 77.5246 101.08 77.7751 101.08 78.4935C101.08 78.9888 101.043 79.4312 101.228 79.895" stroke="white" stroke-width="2.63467" stroke-linecap="round"/>
<path d="M101.377 76.7787C102.261 76.7787 103.246 76.6643 104.163 76.6303C104.896 76.6031 105.532 75.5032 105.532 74.8495C105.532 72.9494 103.037 71.997 102.704 70.1667C102.605 69.6229 102.43 69.2062 102.787 68.691C103.129 68.1971 103.397 68.274 103.825 67.9407C104.267 67.5973 105.68 67.254 105.68 66.6134C105.68 66.0216 105.808 65.306 105.309 64.9068C104.573 64.3175 103.495 64.1648 102.564 64.1648" stroke="white" stroke-width="2.63467" stroke-linecap="round"/>
<path d="M103.306 73.3655V75.5915" stroke="white" stroke-width="2.63467" stroke-linecap="round"/>
<path d="M104.048 64.0165C104.048 63.5713 104.048 63.1261 104.048 62.6809C104.048 62.0834 104.178 62.0281 104.485 61.5679C104.729 61.202 105.144 60.7759 105.532 60.5704C106.009 60.3179 106.496 60.2902 106.95 60.0839C108 59.6066 109.038 59.1193 110.215 59.1193C110.787 59.1193 111.356 58.8359 111.946 58.8225C112.698 58.8055 113.453 58.8225 114.205 58.8225C115.341 58.8225 116.29 58.805 117.371 59.1523C117.929 59.3316 118.373 59.3609 118.896 59.6552C119.452 59.9678 120.015 60.4127 120.553 60.7517C121.188 61.1512 122.927 61.2879 123.637 60.9331C123.861 60.8211 124.548 60.4417 124.667 60.2241C124.813 59.9571 124.88 59.6434 125.038 59.3832C125.283 58.9799 125.143 58.6275 125.302 58.229C125.585 57.5213 125.603 56.1891 125.046 55.632C124.596 55.1818 124.191 55.1907 123.67 54.8817C123.228 54.6203 122.382 54.7531 122.012 54.4448C121.853 54.3115 121.029 54.2328 120.817 54.2222C120.18 54.1903 119.586 54.2829 118.962 54.3788C118.323 54.4771 117.907 54.9269 117.255 54.9642C116.737 54.9938 115.977 55.4282 115.475 55.6237C114.15 56.139 112.916 56.4826 111.55 56.7779C110.909 56.9167 110.243 57.0659 109.605 57.1819C109.023 57.2878 108.362 57.0538 107.791 57.2231C105.944 57.7705 104.229 57.7948 102.416 57.1902" stroke="white" stroke-width="2.63467" stroke-linecap="round"/>
<path d="M104.79 59.2677C104.761 59.724 104.202 59.5386 104.716 59.4243C105.015 59.3578 105.373 59.2677 105.68 59.2677" stroke="white" stroke-width="2.63467" stroke-linecap="round"/>
<path d="M105.68 59.2677C105.247 59.6533 104.512 59.4035 104.048 59.7129" stroke="white" stroke-width="2.63467" stroke-linecap="round"/>
<path d="M104.196 65.6488V65.7972" stroke="white" stroke-width="2.63467" stroke-linecap="round"/>
<path d="M114.436 57.4869C115.104 57.4869 115.771 57.4869 116.439 57.4869C117.209 57.4869 117.763 57.13 118.476 56.9263C119.747 56.5629 121.275 56.7449 122.598 56.7449C123.568 56.7449 123.651 58.7659 123.01 59.1852C122.086 59.7894 119.795 59.2932 119.185 58.3773" stroke="white" stroke-width="2.63467" stroke-linecap="round"/>
<path d="M107.016 57.1902C106.327 57.1902 103.657 57.5715 103.323 56.8192C102.877 55.8168 102.861 55.0061 102.861 53.8512C102.861 52.982 102.691 51.7484 103.042 50.9574C103.316 50.341 103.387 48.4631 103.125 47.8411C102.683 46.7922 101.798 46.8023 100.709 46.8023C99.837 46.8023 100.712 47.5543 100.775 47.7751C100.849 48.0343 101.228 48.9277 101.228 48.3522C101.228 48.1377 101.087 46.93 101.311 46.8023C101.709 46.5749 102.191 46.6539 102.638 46.6539C103.161 46.6539 103.545 46.7639 103.751 47.3299C103.916 47.7842 104.196 48.655 104.196 49.1025C104.196 49.9933 104.418 51.0322 103.751 51.6994C103.448 52.0024 103.045 52.0252 102.679 52.1776C102.071 52.431 101.777 52.672 101.492 51.9962C101.224 51.3585 101.377 50.4535 101.377 49.7702C101.377 49.135 101.287 48.7489 102.053 48.8881C103.4 49.1329 103.658 50.7239 103.891 51.7736C103.964 52.1004 103.997 52.891 103.867 53.1834C103.674 53.6174 103.858 54.0986 103.636 54.519C103.43 54.9081 103.474 54.226 103.537 54.082C103.695 53.7211 104.017 53.4814 104.048 53.068C104.096 52.4247 104.839 51.9983 104.938 51.4026C104.985 51.1235 105.235 51.0682 105.235 50.7348C105.235 50.5122 105.235 50.2896 105.235 50.067C105.235 49.4638 105.258 48.8561 105.235 48.2533C105.17 46.483 102.721 46.5055 101.525 46.5055" stroke="white" stroke-width="2.63467" stroke-linecap="round"/>
<path d="M46.4694 25.1361C46.1959 24.8626 45.9747 24.5425 45.7274 24.2457" stroke="white" stroke-width="2.63467" stroke-linecap="round"/>
<path d="M40.9786 25.8781C41.3774 25.8781 40.2298 25.5583 39.9398 25.2845C39.7468 25.1021 39.5629 25.148 39.3133 25.1361C38.9583 25.1192 38.7869 24.8393 38.4476 24.8393C37.7673 24.8393 37.1228 24.2988 36.6091 23.8829C36.097 23.4684 35.371 23.2218 34.9273 22.7287C34.5133 22.2688 34.7459 20.8806 34.7459 20.3131C34.7459 19.9488 34.5688 19.3485 35.0427 19.3485C35.3642 19.3485 35.6857 19.3485 36.0073 19.3485C37.0124 19.3485 38.4 21.8055 38.596 22.6875C38.6824 23.0764 38.9228 23.2451 39.1896 23.5119C39.436 23.7583 39.5003 24.1689 39.7585 24.4271C39.9619 24.6305 40.5665 25.845 40.6818 25.7297" stroke="white" stroke-width="2.63467" stroke-linecap="round"/>
<path d="M35.7847 21.2777C36.0742 21.893 36.5826 22.4746 36.9719 23.0585" stroke="white" stroke-width="2.63467" stroke-linecap="round"/>
<path d="M9.22133 50.067C9.60057 50.067 10.0685 50.0271 10.3261 49.696C10.8239 49.0559 9.52768 49.3968 9.22133 49.4734" stroke="white" stroke-width="2.63467" stroke-linecap="round"/>
<path d="M22.132 58.6741C20.7382 58.6741 19.3271 58.7475 17.9768 58.8225C16.4747 58.906 15.1075 60.1055 14.2009 61.2711C13.6839 61.9359 13.9884 62.2357 14.6791 62.2357C15.4947 62.2357 15.594 62.0238 16.262 61.6421C17.2729 61.0644 18.3516 60.3794 19.4608 60.0097" stroke="white" stroke-width="2.63467" stroke-linecap="round"/>
<path d="M20.4996 59.7129C20.4571 59.8832 20.0699 59.7981 20.4996 59.4161C20.7164 59.2234 21.1147 59.2111 21.39 59.1193" stroke="white" stroke-width="2.63467" stroke-linecap="round"/>
<path d="M55.6701 110.168C54.9423 110.168 54.2428 110.105 53.6749 110.613C53.3954 110.864 52.832 110.91 52.4878 111.116C52.1676 111.308 51.7768 111.439 51.5232 111.735C51.1443 112.177 50.4656 112.354 50.0309 112.839C49.5617 113.364 49.8722 114.4 50.4019 114.694C53.139 116.215 54.4996 112.814 55.6701 111.059" stroke="white" stroke-width="2.63467" stroke-linecap="round"/>
<path d="M51.6633 113.433C52.0989 113.385 52.5188 112.94 52.8505 112.691" stroke="white" stroke-width="2.63467" stroke-linecap="round"/>
<path d="M62.9416 111.059C62.9416 111.393 63.1008 112.548 63.3868 112.691" stroke="white" stroke-width="2.63467" stroke-linecap="round"/>
<path d="M23.3192 83.7534C22.7314 83.7534 19.4608 84.4696 19.4608 85.1632C19.4608 86.2157 22.8966 84.747 23.1708 84.1986" stroke="white" stroke-width="2.63467" stroke-linecap="round"/>
<path d="M20.3512 68.7651H20.648" stroke="white" stroke-width="2.63467" stroke-linecap="round"/>
<path d="M108.945 69.0619C109.011 68.7971 109.767 68.9135 109.984 68.9135" stroke="white" stroke-width="2.63467" stroke-linecap="round"/>
<path d="M98.2605 94.2896C98.7442 94.3864 99.0025 95.0354 99.0025 95.4768" stroke="white" stroke-width="2.63467" stroke-linecap="round"/>
<path d="M84.6078 22.1681C84.6289 21.9991 84.9139 21.9641 85.053 21.8713" stroke="white" stroke-width="2.63467" stroke-linecap="round"/>
<path d="M64.8708 13.561C64.8708 12.8941 65.2825 12.5649 65.316 11.9286C65.3391 11.4893 65.5963 11.038 65.6128 10.626C65.65 9.69641 65.8042 8.44959 65.6045 7.55087C65.5448 7.2821 65.2396 6.68105 64.9367 6.59452C64.5928 6.49625 64.7224 7.34898 64.7224 7.55087C64.7224 8.00933 64.7512 8.35648 64.8625 8.7463C64.9872 9.18257 65.1676 9.5276 65.1676 9.99944" stroke="white" stroke-width="2.63467" stroke-linecap="round"/>
<path d="M74.5167 19.7937C74.5167 19.1507 74.5167 18.5076 74.5167 17.8646C74.5167 17.3422 74.3683 16.4408 74.3683 17.4523C74.3683 18.2953 74.745 19.9764 73.9231 20.3873" stroke="white" stroke-width="2.63467" stroke-linecap="round"/>
<path d="M123.488 50.5122C123.752 49.3234 125.867 50.3682 126.308 50.809" stroke="white" stroke-width="2.63467" stroke-linecap="round"/>
<path d="M125.269 63.5712H125.714" stroke="white" stroke-width="2.63467" stroke-linecap="round"/>
<path d="M89.6533 116.549C89.6533 117.006 89.4556 117.588 90.0243 117.588C90.556 117.588 90.3953 117.039 90.3953 116.624C90.3953 115.868 89.9252 114.682 89.2081 114.323" stroke="white" stroke-width="1.31733" stroke-linecap="round"/>
<path d="M107.461 31.3688C107.505 31.0197 108.264 31.1437 108.5 31.0391C109.029 30.8041 108.966 30.2732 109.687 30.5939C110.639 31.0171 109.901 28.715 109.242 30.0332" stroke="white" stroke-width="1.31733" stroke-linecap="round"/>
<path d="M48.3163 72.4V74.9925H47.7156L45.6448 80.4778C45.1284 81.8584 44.5382 82.8912 43.8743 83.5762C43.2103 84.2718 42.3356 84.6195 41.2501 84.6195C40.8075 84.6195 40.3596 84.5721 39.9065 84.4773C39.4533 84.393 39.0423 84.2718 38.6734 84.1137V81.2524H40.8549V81.4105C40.8549 81.674 40.9919 81.8057 41.2659 81.8057C41.5083 81.8057 41.6928 81.6898 41.8192 81.4579L39.3216 74.9925H38.7209V72.4H43.4158V74.9925H42.8784L43.7004 77.4585L44.4592 74.9925H43.9217V72.4H48.3163ZM53.4987 81.4105C52.0022 81.4105 50.8325 81.0206 49.9894 80.2407C49.1463 79.4503 48.7247 78.3016 48.7247 76.7946C48.7247 75.2876 49.1463 74.1441 49.9894 73.3642C50.8325 72.5738 52.0022 72.1786 53.4987 72.1786C55.0163 72.1786 56.1914 72.5791 57.0239 73.3801C57.8565 74.1705 58.2728 75.3086 58.2728 76.7946C58.2728 78.3016 57.8512 79.4503 57.0081 80.2407C56.165 81.0206 54.9952 81.4105 53.4987 81.4105ZM53.4987 78.5967C53.8044 78.5967 54.0309 78.5177 54.1785 78.3596C54.3366 78.191 54.4156 77.9328 54.4156 77.585V76.0042C54.4156 75.6564 54.3366 75.4035 54.1785 75.2454C54.0309 75.0768 53.8044 74.9925 53.4987 74.9925C53.1931 74.9925 52.9613 75.0768 52.8032 75.2454C52.6556 75.4035 52.5819 75.6564 52.5819 76.0042V77.585C52.5819 77.9328 52.6556 78.191 52.8032 78.3596C52.9613 78.5177 53.1931 78.5967 53.4987 78.5967ZM63.4078 84.9199C62.649 84.9199 61.9218 84.8672 61.2263 84.7618C60.5412 84.6564 60.009 84.5352 59.6296 84.3982V81.8057C60.7467 82.006 61.7479 82.1061 62.6332 82.1061C63.2339 82.1061 63.666 82.0112 63.9294 81.8215C64.2034 81.6424 64.3404 81.2999 64.3404 80.794V80.1143C64.077 80.4515 63.7345 80.7519 63.3129 81.0153C62.9019 81.2788 62.4277 81.4105 61.8902 81.4105C60.8152 81.4105 60.0038 81.0101 59.4558 80.2091C58.9183 79.4082 58.6496 78.27 58.6496 76.7946C58.6496 75.3192 58.9183 74.181 59.4558 73.3801C60.0038 72.5791 60.8152 72.1786 61.8902 72.1786C62.4277 72.1786 62.9019 72.3104 63.3129 72.5738C63.7345 72.8373 64.077 73.1377 64.3404 73.4749V72.4H68.6718V74.9925H67.9763V80.5569C67.9763 82.085 67.5969 83.1916 66.8381 83.8766C66.0793 84.5721 64.9359 84.9199 63.4078 84.9199ZM63.4236 78.5967C63.7292 78.5967 63.9558 78.5177 64.1033 78.3596C64.2614 78.191 64.3404 77.9328 64.3404 77.585V76.0042C64.3404 75.6564 64.2614 75.4035 64.1033 75.2454C63.9558 75.0768 63.7292 74.9925 63.4236 74.9925C63.1179 74.9925 62.8861 75.0768 62.728 75.2454C62.5805 75.4035 62.5067 75.6564 62.5067 76.0042V77.585C62.5067 77.9328 62.5805 78.191 62.728 78.3596C62.8861 78.5177 63.1179 78.5967 63.4236 78.5967ZM79.5208 78.5967V81.1892H75.1894V79.9562C74.4306 80.9257 73.4821 81.4105 72.344 81.4105C71.4693 81.4105 70.8106 81.1365 70.368 80.5885C69.9359 80.0405 69.7198 79.287 69.7198 78.328V74.9925H69.0243V72.4H73.3557V77.585C73.3557 77.9328 73.4295 78.191 73.577 78.3596C73.7351 78.5177 73.9669 78.5967 74.2725 78.5967C74.5782 78.5967 74.8047 78.5177 74.9523 78.3596C75.1104 78.191 75.1894 77.9328 75.1894 77.585V74.9925H74.3358V72.4H78.8253V78.5967H79.5208ZM86.7063 72.1786C86.9171 72.1786 87.1173 72.1997 87.307 72.2419C87.4967 72.284 87.6548 72.3367 87.7812 72.4V75.4193C87.3491 75.2401 86.8854 75.1506 86.3901 75.1506C85.7262 75.1506 85.2151 75.3244 84.8567 75.6722C84.4984 76.02 84.3193 76.5364 84.3193 77.2214V78.5967H85.742V81.1892H79.9879V78.5967H80.6834V74.9925H79.9879V72.4H84.3193V73.5539C84.6144 73.1113 84.9516 72.7741 85.331 72.5422C85.7104 72.2998 86.1688 72.1786 86.7063 72.1786ZM92.1971 81.4105C91.08 81.4105 90.2369 81.1418 89.6678 80.6043C89.1093 80.0563 88.83 79.1394 88.83 77.8537V74.9925H88.1344V72.4C88.5349 72.4 88.8353 72.2998 89.0355 72.0996C89.2357 71.8888 89.3358 71.6043 89.3358 71.246V70.5346H92.6871V72.4H94.8212V74.9925H92.6871V77.585C92.6871 77.9328 92.7609 78.191 92.9084 78.3596C93.0665 78.5177 93.2984 78.5967 93.604 78.5967C94.0045 78.5967 94.4418 78.5493 94.9161 78.4544V80.9363C94.621 81.0522 94.2205 81.1576 93.7147 81.2524C93.2193 81.3578 92.7135 81.4105 92.1971 81.4105Z" fill="#00BBC9"/>
<path d="M78.3797 35.9495L78.3072 35.1888L77.5827 35.4303C76.341 35.8617 75.015 35.9941 73.7125 35.8167C72.3438 35.6043 70.9429 35.7931 69.6792 36.3601C69.0093 36.6454 68.4214 37.0936 67.969 37.6642C67.5166 38.2347 67.2141 38.9093 67.089 39.6265C66.9268 40.5532 67.008 41.506 67.3245 42.3919C67.5283 41.9318 67.7665 41.4878 68.0369 41.0635C68.6505 40.1608 69.5007 39.4443 70.4943 38.9926C71.4516 38.5555 72.4979 38.3487 73.5494 38.3888C72.5484 38.5419 71.5902 38.9017 70.7358 39.4454C70.3237 39.7043 69.9464 40.0148 69.6128 40.3692C69.2938 40.7234 69.0125 41.1099 68.7736 41.5224C68.3247 42.3846 68.0053 43.3082 67.8256 44.2636C67.632 45.222 67.5269 46.1961 67.5117 47.1738H68.7192C68.776 46.297 68.895 45.4253 69.0754 44.5655C69.9131 45.0178 70.8526 45.2485 71.8045 45.2356C72.6924 45.235 73.5711 45.0564 74.3887 44.7104C78.9834 42.7481 78.3797 36.2212 78.3797 35.9495Z" fill="#00BBC9"/>
<path d="M56.8183 37.5655L56.0556 37.6128L56.2731 38.3449C56.6634 39.6002 56.7521 40.9298 56.5319 42.2258C56.2746 43.5867 56.4171 44.9931 56.9423 46.2747C57.2053 46.9536 57.634 47.556 58.1893 48.0269C58.7446 48.4978 59.4089 48.8224 60.1217 48.971C61.0425 49.1636 61.9975 49.1139 62.8933 48.8267C62.4402 48.6078 62.0042 48.3552 61.5891 48.0709C60.7071 47.4279 60.0189 46.5547 59.6002 45.5467C59.1948 44.5756 59.0226 43.523 59.0973 42.4733C59.2173 43.4789 59.5454 44.4484 60.0607 45.3202C60.3059 45.7406 60.6038 46.128 60.947 46.473C61.2906 46.8035 61.6676 47.0973 62.072 47.3498C62.9189 47.8268 63.8316 48.1764 64.7804 48.3874C65.732 48.6125 66.7021 48.7496 67.6787 48.797L67.7185 47.5901C66.844 47.5045 65.9768 47.3568 65.1233 47.1482C65.603 46.3258 65.8645 45.3945 65.883 44.4427C65.9116 43.5553 65.762 42.6712 65.443 41.8426C63.633 37.1858 57.0898 37.5744 56.8183 37.5655Z" fill="#00F490"/>
</svg>
